<?xml version="1.0" encoding="utf-8" standalone="no"?>
<!DOCTYPE svg PUBLIC "-//W3C//DTD SVG 1.1//EN"
  "http://www.w3.org/Graphics/SVG/1.1/DTD/svg11.dtd">
<!-- Created with matplotlib (https://matplotlib.org/) -->
<svg height="548.556821pt" version="1.1" viewBox="0 0 913.73875 548.556821" width="913.73875pt" xmlns="http://www.w3.org/2000/svg" xmlns:xlink="http://www.w3.org/1999/xlink">
 <metadata>
  <rdf:RDF xmlns:cc="http://creativecommons.org/ns#" xmlns:dc="http://purl.org/dc/elements/1.1/" xmlns:rdf="http://www.w3.org/1999/02/22-rdf-syntax-ns#">
   <cc:Work>
    <dc:type rdf:resource="http://purl.org/dc/dcmitype/StillImage"/>
    <dc:date>2020-10-29T12:19:59.606873</dc:date>
    <dc:format>image/svg+xml</dc:format>
    <dc:creator>
     <cc:Agent>
      <dc:title>Matplotlib v3.3.2, https://matplotlib.org/</dc:title>
     </cc:Agent>
    </dc:creator>
   </cc:Work>
  </rdf:RDF>
 </metadata>
 <defs>
  <style type="text/css">*{stroke-linecap:butt;stroke-linejoin:round;}</style>
 </defs>
 <g id="figure_1">
  <g id="patch_1">
   <path d="M 0 548.556821 
L 913.73875 548.556821 
L 913.73875 0 
L 0 0 
z
" style="fill:none;"/>
  </g>
  <g id="axes_1">
   <g id="patch_2">
    <path d="M 42.53875 460.0025 
L 906.53875 460.0025 
L 906.53875 28.0025 
L 42.53875 28.0025 
z
" style="fill:#ffffff;"/>
   </g>
   <g id="matplotlib.axis_1">
    <g id="xtick_1">
     <g id="line2d_1">
      <defs>
       <path d="M 0 0 
L 0 3.5 
" id="m3c6bdc13c2" style="stroke:#000000;stroke-width:0.8;"/>
      </defs>
      <g>
       <use style="stroke:#000000;stroke-width:0.8;" x="81.811477" xlink:href="#m3c6bdc13c2" y="460.0025"/>
      </g>
     </g>
     <g id="text_1">
      <!-- 30/03/2020 -->
      <g transform="translate(79.524608 525.083812)rotate(-80)scale(0.1 -0.1)">
       <defs>
        <path d="M 40.578125 39.3125 
Q 47.65625 37.796875 51.625 33 
Q 55.609375 28.21875 55.609375 21.1875 
Q 55.609375 10.40625 48.1875 4.484375 
Q 40.765625 -1.421875 27.09375 -1.421875 
Q 22.515625 -1.421875 17.65625 -0.515625 
Q 12.796875 0.390625 7.625 2.203125 
L 7.625 11.71875 
Q 11.71875 9.328125 16.59375 8.109375 
Q 21.484375 6.890625 26.8125 6.890625 
Q 36.078125 6.890625 40.9375 10.546875 
Q 45.796875 14.203125 45.796875 21.1875 
Q 45.796875 27.640625 41.28125 31.265625 
Q 36.765625 34.90625 28.71875 34.90625 
L 20.21875 34.90625 
L 20.21875 43.015625 
L 29.109375 43.015625 
Q 36.375 43.015625 40.234375 45.921875 
Q 44.09375 48.828125 44.09375 54.296875 
Q 44.09375 59.90625 40.109375 62.90625 
Q 36.140625 65.921875 28.71875 65.921875 
Q 24.65625 65.921875 20.015625 65.03125 
Q 15.375 64.15625 9.8125 62.3125 
L 9.8125 71.09375 
Q 15.4375 72.65625 20.34375 73.4375 
Q 25.25 74.21875 29.59375 74.21875 
Q 40.828125 74.21875 47.359375 69.109375 
Q 53.90625 64.015625 53.90625 55.328125 
Q 53.90625 49.265625 50.4375 45.09375 
Q 46.96875 40.921875 40.578125 39.3125 
z
" id="DejaVuSans-51"/>
        <path d="M 31.78125 66.40625 
Q 24.171875 66.40625 20.328125 58.90625 
Q 16.5 51.421875 16.5 36.375 
Q 16.5 21.390625 20.328125 13.890625 
Q 24.171875 6.390625 31.78125 6.390625 
Q 39.453125 6.390625 43.28125 13.890625 
Q 47.125 21.390625 47.125 36.375 
Q 47.125 51.421875 43.28125 58.90625 
Q 39.453125 66.40625 31.78125 66.40625 
z
M 31.78125 74.21875 
Q 44.046875 74.21875 50.515625 64.515625 
Q 56.984375 54.828125 56.984375 36.375 
Q 56.984375 17.96875 50.515625 8.265625 
Q 44.046875 -1.421875 31.78125 -1.421875 
Q 19.53125 -1.421875 13.0625 8.265625 
Q 6.59375 17.96875 6.59375 36.375 
Q 6.59375 54.828125 13.0625 64.515625 
Q 19.53125 74.21875 31.78125 74.21875 
z
" id="DejaVuSans-48"/>
        <path d="M 25.390625 72.90625 
L 33.6875 72.90625 
L 8.296875 -9.28125 
L 0 -9.28125 
z
" id="DejaVuSans-47"/>
        <path d="M 19.1875 8.296875 
L 53.609375 8.296875 
L 53.609375 0 
L 7.328125 0 
L 7.328125 8.296875 
Q 12.9375 14.109375 22.625 23.890625 
Q 32.328125 33.6875 34.8125 36.53125 
Q 39.546875 41.84375 41.421875 45.53125 
Q 43.3125 49.21875 43.3125 52.78125 
Q 43.3125 58.59375 39.234375 62.25 
Q 35.15625 65.921875 28.609375 65.921875 
Q 23.96875 65.921875 18.8125 64.3125 
Q 13.671875 62.703125 7.8125 59.421875 
L 7.8125 69.390625 
Q 13.765625 71.78125 18.9375 73 
Q 24.125 74.21875 28.421875 74.21875 
Q 39.75 74.21875 46.484375 68.546875 
Q 53.21875 62.890625 53.21875 53.421875 
Q 53.21875 48.921875 51.53125 44.890625 
Q 49.859375 40.875 45.40625 35.40625 
Q 44.1875 33.984375 37.640625 27.21875 
Q 31.109375 20.453125 19.1875 8.296875 
z
" id="DejaVuSans-50"/>
       </defs>
       <use xlink:href="#DejaVuSans-51"/>
       <use x="63.623047" xlink:href="#DejaVuSans-48"/>
       <use x="127.246094" xlink:href="#DejaVuSans-47"/>
       <use x="160.9375" xlink:href="#DejaVuSans-48"/>
       <use x="224.560547" xlink:href="#DejaVuSans-51"/>
       <use x="288.183594" xlink:href="#DejaVuSans-47"/>
       <use x="321.875" xlink:href="#DejaVuSans-50"/>
       <use x="385.498047" xlink:href="#DejaVuSans-48"/>
       <use x="449.121094" xlink:href="#DejaVuSans-50"/>
       <use x="512.744141" xlink:href="#DejaVuSans-48"/>
      </g>
     </g>
    </g>
    <g id="xtick_2">
     <g id="line2d_2">
      <g>
       <use style="stroke:#000000;stroke-width:0.8;" x="119.393034" xlink:href="#m3c6bdc13c2" y="460.0025"/>
      </g>
     </g>
     <g id="text_2">
      <!-- 09/04/2020 -->
      <g transform="translate(117.106165 525.083812)rotate(-80)scale(0.1 -0.1)">
       <defs>
        <path d="M 10.984375 1.515625 
L 10.984375 10.5 
Q 14.703125 8.734375 18.5 7.8125 
Q 22.3125 6.890625 25.984375 6.890625 
Q 35.75 6.890625 40.890625 13.453125 
Q 46.046875 20.015625 46.78125 33.40625 
Q 43.953125 29.203125 39.59375 26.953125 
Q 35.25 24.703125 29.984375 24.703125 
Q 19.046875 24.703125 12.671875 31.3125 
Q 6.296875 37.9375 6.296875 49.421875 
Q 6.296875 60.640625 12.9375 67.421875 
Q 19.578125 74.21875 30.609375 74.21875 
Q 43.265625 74.21875 49.921875 64.515625 
Q 56.59375 54.828125 56.59375 36.375 
Q 56.59375 19.140625 48.40625 8.859375 
Q 40.234375 -1.421875 26.421875 -1.421875 
Q 22.703125 -1.421875 18.890625 -0.6875 
Q 15.09375 0.046875 10.984375 1.515625 
z
M 30.609375 32.421875 
Q 37.25 32.421875 41.125 36.953125 
Q 45.015625 41.5 45.015625 49.421875 
Q 45.015625 57.28125 41.125 61.84375 
Q 37.25 66.40625 30.609375 66.40625 
Q 23.96875 66.40625 20.09375 61.84375 
Q 16.21875 57.28125 16.21875 49.421875 
Q 16.21875 41.5 20.09375 36.953125 
Q 23.96875 32.421875 30.609375 32.421875 
z
" id="DejaVuSans-57"/>
        <path d="M 37.796875 64.3125 
L 12.890625 25.390625 
L 37.796875 25.390625 
z
M 35.203125 72.90625 
L 47.609375 72.90625 
L 47.609375 25.390625 
L 58.015625 25.390625 
L 58.015625 17.1875 
L 47.609375 17.1875 
L 47.609375 0 
L 37.796875 0 
L 37.796875 17.1875 
L 4.890625 17.1875 
L 4.890625 26.703125 
z
" id="DejaVuSans-52"/>
       </defs>
       <use xlink:href="#DejaVuSans-48"/>
       <use x="63.623047" xlink:href="#DejaVuSans-57"/>
       <use x="127.246094" xlink:href="#DejaVuSans-47"/>
       <use x="160.9375" xlink:href="#DejaVuSans-48"/>
       <use x="224.560547" xlink:href="#DejaVuSans-52"/>
       <use x="288.183594" xlink:href="#DejaVuSans-47"/>
       <use x="321.875" xlink:href="#DejaVuSans-50"/>
       <use x="385.498047" xlink:href="#DejaVuSans-48"/>
       <use x="449.121094" xlink:href="#DejaVuSans-50"/>
       <use x="512.744141" xlink:href="#DejaVuSans-48"/>
      </g>
     </g>
    </g>
    <g id="xtick_3">
     <g id="line2d_3">
      <g>
       <use style="stroke:#000000;stroke-width:0.8;" x="156.974592" xlink:href="#m3c6bdc13c2" y="460.0025"/>
      </g>
     </g>
     <g id="text_3">
      <!-- 19/04/2020 -->
      <g transform="translate(154.687722 525.083812)rotate(-80)scale(0.1 -0.1)">
       <defs>
        <path d="M 12.40625 8.296875 
L 28.515625 8.296875 
L 28.515625 63.921875 
L 10.984375 60.40625 
L 10.984375 69.390625 
L 28.421875 72.90625 
L 38.28125 72.90625 
L 38.28125 8.296875 
L 54.390625 8.296875 
L 54.390625 0 
L 12.40625 0 
z
" id="DejaVuSans-49"/>
       </defs>
       <use xlink:href="#DejaVuSans-49"/>
       <use x="63.623047" xlink:href="#DejaVuSans-57"/>
       <use x="127.246094" xlink:href="#DejaVuSans-47"/>
       <use x="160.9375" xlink:href="#DejaVuSans-48"/>
       <use x="224.560547" xlink:href="#DejaVuSans-52"/>
       <use x="288.183594" xlink:href="#DejaVuSans-47"/>
       <use x="321.875" xlink:href="#DejaVuSans-50"/>
       <use x="385.498047" xlink:href="#DejaVuSans-48"/>
       <use x="449.121094" xlink:href="#DejaVuSans-50"/>
       <use x="512.744141" xlink:href="#DejaVuSans-48"/>
      </g>
     </g>
    </g>
    <g id="xtick_4">
     <g id="line2d_4">
      <g>
       <use style="stroke:#000000;stroke-width:0.8;" x="194.556149" xlink:href="#m3c6bdc13c2" y="460.0025"/>
      </g>
     </g>
     <g id="text_4">
      <!-- 29/04/2020 -->
      <g transform="translate(192.269279 525.083812)rotate(-80)scale(0.1 -0.1)">
       <use xlink:href="#DejaVuSans-50"/>
       <use x="63.623047" xlink:href="#DejaVuSans-57"/>
       <use x="127.246094" xlink:href="#DejaVuSans-47"/>
       <use x="160.9375" xlink:href="#DejaVuSans-48"/>
       <use x="224.560547" xlink:href="#DejaVuSans-52"/>
       <use x="288.183594" xlink:href="#DejaVuSans-47"/>
       <use x="321.875" xlink:href="#DejaVuSans-50"/>
       <use x="385.498047" xlink:href="#DejaVuSans-48"/>
       <use x="449.121094" xlink:href="#DejaVuSans-50"/>
       <use x="512.744141" xlink:href="#DejaVuSans-48"/>
      </g>
     </g>
    </g>
    <g id="xtick_5">
     <g id="line2d_5">
      <g>
       <use style="stroke:#000000;stroke-width:0.8;" x="232.137706" xlink:href="#m3c6bdc13c2" y="460.0025"/>
      </g>
     </g>
     <g id="text_5">
      <!-- 09/05/2020 -->
      <g transform="translate(229.850837 525.083812)rotate(-80)scale(0.1 -0.1)">
       <defs>
        <path d="M 10.796875 72.90625 
L 49.515625 72.90625 
L 49.515625 64.59375 
L 19.828125 64.59375 
L 19.828125 46.734375 
Q 21.96875 47.46875 24.109375 47.828125 
Q 26.265625 48.1875 28.421875 48.1875 
Q 40.625 48.1875 47.75 41.5 
Q 54.890625 34.8125 54.890625 23.390625 
Q 54.890625 11.625 47.5625 5.09375 
Q 40.234375 -1.421875 26.90625 -1.421875 
Q 22.3125 -1.421875 17.546875 -0.640625 
Q 12.796875 0.140625 7.71875 1.703125 
L 7.71875 11.625 
Q 12.109375 9.234375 16.796875 8.0625 
Q 21.484375 6.890625 26.703125 6.890625 
Q 35.15625 6.890625 40.078125 11.328125 
Q 45.015625 15.765625 45.015625 23.390625 
Q 45.015625 31 40.078125 35.4375 
Q 35.15625 39.890625 26.703125 39.890625 
Q 22.75 39.890625 18.8125 39.015625 
Q 14.890625 38.140625 10.796875 36.28125 
z
" id="DejaVuSans-53"/>
       </defs>
       <use xlink:href="#DejaVuSans-48"/>
       <use x="63.623047" xlink:href="#DejaVuSans-57"/>
       <use x="127.246094" xlink:href="#DejaVuSans-47"/>
       <use x="160.9375" xlink:href="#DejaVuSans-48"/>
       <use x="224.560547" xlink:href="#DejaVuSans-53"/>
       <use x="288.183594" xlink:href="#DejaVuSans-47"/>
       <use x="321.875" xlink:href="#DejaVuSans-50"/>
       <use x="385.498047" xlink:href="#DejaVuSans-48"/>
       <use x="449.121094" xlink:href="#DejaVuSans-50"/>
       <use x="512.744141" xlink:href="#DejaVuSans-48"/>
      </g>
     </g>
    </g>
    <g id="xtick_6">
     <g id="line2d_6">
      <g>
       <use style="stroke:#000000;stroke-width:0.8;" x="269.719263" xlink:href="#m3c6bdc13c2" y="460.0025"/>
      </g>
     </g>
     <g id="text_6">
      <!-- 19/05/2020 -->
      <g transform="translate(267.432394 525.083812)rotate(-80)scale(0.1 -0.1)">
       <use xlink:href="#DejaVuSans-49"/>
       <use x="63.623047" xlink:href="#DejaVuSans-57"/>
       <use x="127.246094" xlink:href="#DejaVuSans-47"/>
       <use x="160.9375" xlink:href="#DejaVuSans-48"/>
       <use x="224.560547" xlink:href="#DejaVuSans-53"/>
       <use x="288.183594" xlink:href="#DejaVuSans-47"/>
       <use x="321.875" xlink:href="#DejaVuSans-50"/>
       <use x="385.498047" xlink:href="#DejaVuSans-48"/>
       <use x="449.121094" xlink:href="#DejaVuSans-50"/>
       <use x="512.744141" xlink:href="#DejaVuSans-48"/>
      </g>
     </g>
    </g>
    <g id="xtick_7">
     <g id="line2d_7">
      <g>
       <use style="stroke:#000000;stroke-width:0.8;" x="307.30082" xlink:href="#m3c6bdc13c2" y="460.0025"/>
      </g>
     </g>
     <g id="text_7">
      <!-- 29/05/2020 -->
      <g transform="translate(305.013951 525.083812)rotate(-80)scale(0.1 -0.1)">
       <use xlink:href="#DejaVuSans-50"/>
       <use x="63.623047" xlink:href="#DejaVuSans-57"/>
       <use x="127.246094" xlink:href="#DejaVuSans-47"/>
       <use x="160.9375" xlink:href="#DejaVuSans-48"/>
       <use x="224.560547" xlink:href="#DejaVuSans-53"/>
       <use x="288.183594" xlink:href="#DejaVuSans-47"/>
       <use x="321.875" xlink:href="#DejaVuSans-50"/>
       <use x="385.498047" xlink:href="#DejaVuSans-48"/>
       <use x="449.121094" xlink:href="#DejaVuSans-50"/>
       <use x="512.744141" xlink:href="#DejaVuSans-48"/>
      </g>
     </g>
    </g>
    <g id="xtick_8">
     <g id="line2d_8">
      <g>
       <use style="stroke:#000000;stroke-width:0.8;" x="344.882378" xlink:href="#m3c6bdc13c2" y="460.0025"/>
      </g>
     </g>
     <g id="text_8">
      <!-- 08/06/2020 -->
      <g transform="translate(342.595508 525.083812)rotate(-80)scale(0.1 -0.1)">
       <defs>
        <path d="M 31.78125 34.625 
Q 24.75 34.625 20.71875 30.859375 
Q 16.703125 27.09375 16.703125 20.515625 
Q 16.703125 13.921875 20.71875 10.15625 
Q 24.75 6.390625 31.78125 6.390625 
Q 38.8125 6.390625 42.859375 10.171875 
Q 46.921875 13.96875 46.921875 20.515625 
Q 46.921875 27.09375 42.890625 30.859375 
Q 38.875 34.625 31.78125 34.625 
z
M 21.921875 38.8125 
Q 15.578125 40.375 12.03125 44.71875 
Q 8.5 49.078125 8.5 55.328125 
Q 8.5 64.0625 14.71875 69.140625 
Q 20.953125 74.21875 31.78125 74.21875 
Q 42.671875 74.21875 48.875 69.140625 
Q 55.078125 64.0625 55.078125 55.328125 
Q 55.078125 49.078125 51.53125 44.71875 
Q 48 40.375 41.703125 38.8125 
Q 48.828125 37.15625 52.796875 32.3125 
Q 56.78125 27.484375 56.78125 20.515625 
Q 56.78125 9.90625 50.3125 4.234375 
Q 43.84375 -1.421875 31.78125 -1.421875 
Q 19.734375 -1.421875 13.25 4.234375 
Q 6.78125 9.90625 6.78125 20.515625 
Q 6.78125 27.484375 10.78125 32.3125 
Q 14.796875 37.15625 21.921875 38.8125 
z
M 18.3125 54.390625 
Q 18.3125 48.734375 21.84375 45.5625 
Q 25.390625 42.390625 31.78125 42.390625 
Q 38.140625 42.390625 41.71875 45.5625 
Q 45.3125 48.734375 45.3125 54.390625 
Q 45.3125 60.0625 41.71875 63.234375 
Q 38.140625 66.40625 31.78125 66.40625 
Q 25.390625 66.40625 21.84375 63.234375 
Q 18.3125 60.0625 18.3125 54.390625 
z
" id="DejaVuSans-56"/>
        <path d="M 33.015625 40.375 
Q 26.375 40.375 22.484375 35.828125 
Q 18.609375 31.296875 18.609375 23.390625 
Q 18.609375 15.53125 22.484375 10.953125 
Q 26.375 6.390625 33.015625 6.390625 
Q 39.65625 6.390625 43.53125 10.953125 
Q 47.40625 15.53125 47.40625 23.390625 
Q 47.40625 31.296875 43.53125 35.828125 
Q 39.65625 40.375 33.015625 40.375 
z
M 52.59375 71.296875 
L 52.59375 62.3125 
Q 48.875 64.0625 45.09375 64.984375 
Q 41.3125 65.921875 37.59375 65.921875 
Q 27.828125 65.921875 22.671875 59.328125 
Q 17.53125 52.734375 16.796875 39.40625 
Q 19.671875 43.65625 24.015625 45.921875 
Q 28.375 48.1875 33.59375 48.1875 
Q 44.578125 48.1875 50.953125 41.515625 
Q 57.328125 34.859375 57.328125 23.390625 
Q 57.328125 12.15625 50.6875 5.359375 
Q 44.046875 -1.421875 33.015625 -1.421875 
Q 20.359375 -1.421875 13.671875 8.265625 
Q 6.984375 17.96875 6.984375 36.375 
Q 6.984375 53.65625 15.1875 63.9375 
Q 23.390625 74.21875 37.203125 74.21875 
Q 40.921875 74.21875 44.703125 73.484375 
Q 48.484375 72.75 52.59375 71.296875 
z
" id="DejaVuSans-54"/>
       </defs>
       <use xlink:href="#DejaVuSans-48"/>
       <use x="63.623047" xlink:href="#DejaVuSans-56"/>
       <use x="127.246094" xlink:href="#DejaVuSans-47"/>
       <use x="160.9375" xlink:href="#DejaVuSans-48"/>
       <use x="224.560547" xlink:href="#DejaVuSans-54"/>
       <use x="288.183594" xlink:href="#DejaVuSans-47"/>
       <use x="321.875" xlink:href="#DejaVuSans-50"/>
       <use x="385.498047" xlink:href="#DejaVuSans-48"/>
       <use x="449.121094" xlink:href="#DejaVuSans-50"/>
       <use x="512.744141" xlink:href="#DejaVuSans-48"/>
      </g>
     </g>
    </g>
    <g id="xtick_9">
     <g id="line2d_9">
      <g>
       <use style="stroke:#000000;stroke-width:0.8;" x="382.463935" xlink:href="#m3c6bdc13c2" y="460.0025"/>
      </g>
     </g>
     <g id="text_9">
      <!-- 18/06/2020 -->
      <g transform="translate(380.177065 525.083812)rotate(-80)scale(0.1 -0.1)">
       <use xlink:href="#DejaVuSans-49"/>
       <use x="63.623047" xlink:href="#DejaVuSans-56"/>
       <use x="127.246094" xlink:href="#DejaVuSans-47"/>
       <use x="160.9375" xlink:href="#DejaVuSans-48"/>
       <use x="224.560547" xlink:href="#DejaVuSans-54"/>
       <use x="288.183594" xlink:href="#DejaVuSans-47"/>
       <use x="321.875" xlink:href="#DejaVuSans-50"/>
       <use x="385.498047" xlink:href="#DejaVuSans-48"/>
       <use x="449.121094" xlink:href="#DejaVuSans-50"/>
       <use x="512.744141" xlink:href="#DejaVuSans-48"/>
      </g>
     </g>
    </g>
    <g id="xtick_10">
     <g id="line2d_10">
      <g>
       <use style="stroke:#000000;stroke-width:0.8;" x="420.045492" xlink:href="#m3c6bdc13c2" y="460.0025"/>
      </g>
     </g>
     <g id="text_10">
      <!-- 28/06/2020 -->
      <g transform="translate(417.758623 525.083812)rotate(-80)scale(0.1 -0.1)">
       <use xlink:href="#DejaVuSans-50"/>
       <use x="63.623047" xlink:href="#DejaVuSans-56"/>
       <use x="127.246094" xlink:href="#DejaVuSans-47"/>
       <use x="160.9375" xlink:href="#DejaVuSans-48"/>
       <use x="224.560547" xlink:href="#DejaVuSans-54"/>
       <use x="288.183594" xlink:href="#DejaVuSans-47"/>
       <use x="321.875" xlink:href="#DejaVuSans-50"/>
       <use x="385.498047" xlink:href="#DejaVuSans-48"/>
       <use x="449.121094" xlink:href="#DejaVuSans-50"/>
       <use x="512.744141" xlink:href="#DejaVuSans-48"/>
      </g>
     </g>
    </g>
    <g id="xtick_11">
     <g id="line2d_11">
      <g>
       <use style="stroke:#000000;stroke-width:0.8;" x="457.627049" xlink:href="#m3c6bdc13c2" y="460.0025"/>
      </g>
     </g>
     <g id="text_11">
      <!-- 08/07/2020 -->
      <g transform="translate(455.34018 525.083812)rotate(-80)scale(0.1 -0.1)">
       <defs>
        <path d="M 8.203125 72.90625 
L 55.078125 72.90625 
L 55.078125 68.703125 
L 28.609375 0 
L 18.3125 0 
L 43.21875 64.59375 
L 8.203125 64.59375 
z
" id="DejaVuSans-55"/>
       </defs>
       <use xlink:href="#DejaVuSans-48"/>
       <use x="63.623047" xlink:href="#DejaVuSans-56"/>
       <use x="127.246094" xlink:href="#DejaVuSans-47"/>
       <use x="160.9375" xlink:href="#DejaVuSans-48"/>
       <use x="224.560547" xlink:href="#DejaVuSans-55"/>
       <use x="288.183594" xlink:href="#DejaVuSans-47"/>
       <use x="321.875" xlink:href="#DejaVuSans-50"/>
       <use x="385.498047" xlink:href="#DejaVuSans-48"/>
       <use x="449.121094" xlink:href="#DejaVuSans-50"/>
       <use x="512.744141" xlink:href="#DejaVuSans-48"/>
      </g>
     </g>
    </g>
    <g id="xtick_12">
     <g id="line2d_12">
      <g>
       <use style="stroke:#000000;stroke-width:0.8;" x="495.208606" xlink:href="#m3c6bdc13c2" y="460.0025"/>
      </g>
     </g>
     <g id="text_12">
      <!-- 18/07/2020 -->
      <g transform="translate(492.921737 525.083812)rotate(-80)scale(0.1 -0.1)">
       <use xlink:href="#DejaVuSans-49"/>
       <use x="63.623047" xlink:href="#DejaVuSans-56"/>
       <use x="127.246094" xlink:href="#DejaVuSans-47"/>
       <use x="160.9375" xlink:href="#DejaVuSans-48"/>
       <use x="224.560547" xlink:href="#DejaVuSans-55"/>
       <use x="288.183594" xlink:href="#DejaVuSans-47"/>
       <use x="321.875" xlink:href="#DejaVuSans-50"/>
       <use x="385.498047" xlink:href="#DejaVuSans-48"/>
       <use x="449.121094" xlink:href="#DejaVuSans-50"/>
       <use x="512.744141" xlink:href="#DejaVuSans-48"/>
      </g>
     </g>
    </g>
    <g id="xtick_13">
     <g id="line2d_13">
      <g>
       <use style="stroke:#000000;stroke-width:0.8;" x="532.790164" xlink:href="#m3c6bdc13c2" y="460.0025"/>
      </g>
     </g>
     <g id="text_13">
      <!-- 28/07/2020 -->
      <g transform="translate(530.503294 525.083812)rotate(-80)scale(0.1 -0.1)">
       <use xlink:href="#DejaVuSans-50"/>
       <use x="63.623047" xlink:href="#DejaVuSans-56"/>
       <use x="127.246094" xlink:href="#DejaVuSans-47"/>
       <use x="160.9375" xlink:href="#DejaVuSans-48"/>
       <use x="224.560547" xlink:href="#DejaVuSans-55"/>
       <use x="288.183594" xlink:href="#DejaVuSans-47"/>
       <use x="321.875" xlink:href="#DejaVuSans-50"/>
       <use x="385.498047" xlink:href="#DejaVuSans-48"/>
       <use x="449.121094" xlink:href="#DejaVuSans-50"/>
       <use x="512.744141" xlink:href="#DejaVuSans-48"/>
      </g>
     </g>
    </g>
    <g id="xtick_14">
     <g id="line2d_14">
      <g>
       <use style="stroke:#000000;stroke-width:0.8;" x="570.371721" xlink:href="#m3c6bdc13c2" y="460.0025"/>
      </g>
     </g>
     <g id="text_14">
      <!-- 07/08/2020 -->
      <g transform="translate(568.084851 525.083812)rotate(-80)scale(0.1 -0.1)">
       <use xlink:href="#DejaVuSans-48"/>
       <use x="63.623047" xlink:href="#DejaVuSans-55"/>
       <use x="127.246094" xlink:href="#DejaVuSans-47"/>
       <use x="160.9375" xlink:href="#DejaVuSans-48"/>
       <use x="224.560547" xlink:href="#DejaVuSans-56"/>
       <use x="288.183594" xlink:href="#DejaVuSans-47"/>
       <use x="321.875" xlink:href="#DejaVuSans-50"/>
       <use x="385.498047" xlink:href="#DejaVuSans-48"/>
       <use x="449.121094" xlink:href="#DejaVuSans-50"/>
       <use x="512.744141" xlink:href="#DejaVuSans-48"/>
      </g>
     </g>
    </g>
    <g id="xtick_15">
     <g id="line2d_15">
      <g>
       <use style="stroke:#000000;stroke-width:0.8;" x="607.953278" xlink:href="#m3c6bdc13c2" y="460.0025"/>
      </g>
     </g>
     <g id="text_15">
      <!-- 17/08/2020 -->
      <g transform="translate(605.666409 525.083812)rotate(-80)scale(0.1 -0.1)">
       <use xlink:href="#DejaVuSans-49"/>
       <use x="63.623047" xlink:href="#DejaVuSans-55"/>
       <use x="127.246094" xlink:href="#DejaVuSans-47"/>
       <use x="160.9375" xlink:href="#DejaVuSans-48"/>
       <use x="224.560547" xlink:href="#DejaVuSans-56"/>
       <use x="288.183594" xlink:href="#DejaVuSans-47"/>
       <use x="321.875" xlink:href="#DejaVuSans-50"/>
       <use x="385.498047" xlink:href="#DejaVuSans-48"/>
       <use x="449.121094" xlink:href="#DejaVuSans-50"/>
       <use x="512.744141" xlink:href="#DejaVuSans-48"/>
      </g>
     </g>
    </g>
    <g id="xtick_16">
     <g id="line2d_16">
      <g>
       <use style="stroke:#000000;stroke-width:0.8;" x="645.534835" xlink:href="#m3c6bdc13c2" y="460.0025"/>
      </g>
     </g>
     <g id="text_16">
      <!-- 27/08/2020 -->
      <g transform="translate(643.247966 525.083812)rotate(-80)scale(0.1 -0.1)">
       <use xlink:href="#DejaVuSans-50"/>
       <use x="63.623047" xlink:href="#DejaVuSans-55"/>
       <use x="127.246094" xlink:href="#DejaVuSans-47"/>
       <use x="160.9375" xlink:href="#DejaVuSans-48"/>
       <use x="224.560547" xlink:href="#DejaVuSans-56"/>
       <use x="288.183594" xlink:href="#DejaVuSans-47"/>
       <use x="321.875" xlink:href="#DejaVuSans-50"/>
       <use x="385.498047" xlink:href="#DejaVuSans-48"/>
       <use x="449.121094" xlink:href="#DejaVuSans-50"/>
       <use x="512.744141" xlink:href="#DejaVuSans-48"/>
      </g>
     </g>
    </g>
    <g id="xtick_17">
     <g id="line2d_17">
      <g>
       <use style="stroke:#000000;stroke-width:0.8;" x="683.116392" xlink:href="#m3c6bdc13c2" y="460.0025"/>
      </g>
     </g>
     <g id="text_17">
      <!-- 06/09/2020 -->
      <g transform="translate(680.829523 525.083812)rotate(-80)scale(0.1 -0.1)">
       <use xlink:href="#DejaVuSans-48"/>
       <use x="63.623047" xlink:href="#DejaVuSans-54"/>
       <use x="127.246094" xlink:href="#DejaVuSans-47"/>
       <use x="160.9375" xlink:href="#DejaVuSans-48"/>
       <use x="224.560547" xlink:href="#DejaVuSans-57"/>
       <use x="288.183594" xlink:href="#DejaVuSans-47"/>
       <use x="321.875" xlink:href="#DejaVuSans-50"/>
       <use x="385.498047" xlink:href="#DejaVuSans-48"/>
       <use x="449.121094" xlink:href="#DejaVuSans-50"/>
       <use x="512.744141" xlink:href="#DejaVuSans-48"/>
      </g>
     </g>
    </g>
    <g id="xtick_18">
     <g id="line2d_18">
      <g>
       <use style="stroke:#000000;stroke-width:0.8;" x="720.69795" xlink:href="#m3c6bdc13c2" y="460.0025"/>
      </g>
     </g>
     <g id="text_18">
      <!-- 16/09/2020 -->
      <g transform="translate(718.41108 525.083812)rotate(-80)scale(0.1 -0.1)">
       <use xlink:href="#DejaVuSans-49"/>
       <use x="63.623047" xlink:href="#DejaVuSans-54"/>
       <use x="127.246094" xlink:href="#DejaVuSans-47"/>
       <use x="160.9375" xlink:href="#DejaVuSans-48"/>
       <use x="224.560547" xlink:href="#DejaVuSans-57"/>
       <use x="288.183594" xlink:href="#DejaVuSans-47"/>
       <use x="321.875" xlink:href="#DejaVuSans-50"/>
       <use x="385.498047" xlink:href="#DejaVuSans-48"/>
       <use x="449.121094" xlink:href="#DejaVuSans-50"/>
       <use x="512.744141" xlink:href="#DejaVuSans-48"/>
      </g>
     </g>
    </g>
    <g id="xtick_19">
     <g id="line2d_19">
      <g>
       <use style="stroke:#000000;stroke-width:0.8;" x="758.279507" xlink:href="#m3c6bdc13c2" y="460.0025"/>
      </g>
     </g>
     <g id="text_19">
      <!-- 26/09/2020 -->
      <g transform="translate(755.992637 525.083812)rotate(-80)scale(0.1 -0.1)">
       <use xlink:href="#DejaVuSans-50"/>
       <use x="63.623047" xlink:href="#DejaVuSans-54"/>
       <use x="127.246094" xlink:href="#DejaVuSans-47"/>
       <use x="160.9375" xlink:href="#DejaVuSans-48"/>
       <use x="224.560547" xlink:href="#DejaVuSans-57"/>
       <use x="288.183594" xlink:href="#DejaVuSans-47"/>
       <use x="321.875" xlink:href="#DejaVuSans-50"/>
       <use x="385.498047" xlink:href="#DejaVuSans-48"/>
       <use x="449.121094" xlink:href="#DejaVuSans-50"/>
       <use x="512.744141" xlink:href="#DejaVuSans-48"/>
      </g>
     </g>
    </g>
    <g id="xtick_20">
     <g id="line2d_20">
      <g>
       <use style="stroke:#000000;stroke-width:0.8;" x="795.861064" xlink:href="#m3c6bdc13c2" y="460.0025"/>
      </g>
     </g>
     <g id="text_20">
      <!-- 06/10/2020 -->
      <g transform="translate(793.574195 525.083812)rotate(-80)scale(0.1 -0.1)">
       <use xlink:href="#DejaVuSans-48"/>
       <use x="63.623047" xlink:href="#DejaVuSans-54"/>
       <use x="127.246094" xlink:href="#DejaVuSans-47"/>
       <use x="160.9375" xlink:href="#DejaVuSans-49"/>
       <use x="224.560547" xlink:href="#DejaVuSans-48"/>
       <use x="288.183594" xlink:href="#DejaVuSans-47"/>
       <use x="321.875" xlink:href="#DejaVuSans-50"/>
       <use x="385.498047" xlink:href="#DejaVuSans-48"/>
       <use x="449.121094" xlink:href="#DejaVuSans-50"/>
       <use x="512.744141" xlink:href="#DejaVuSans-48"/>
      </g>
     </g>
    </g>
    <g id="xtick_21">
     <g id="line2d_21">
      <g>
       <use style="stroke:#000000;stroke-width:0.8;" x="833.442621" xlink:href="#m3c6bdc13c2" y="460.0025"/>
      </g>
     </g>
     <g id="text_21">
      <!-- 16/10/2020 -->
      <g transform="translate(831.155752 525.083812)rotate(-80)scale(0.1 -0.1)">
       <use xlink:href="#DejaVuSans-49"/>
       <use x="63.623047" xlink:href="#DejaVuSans-54"/>
       <use x="127.246094" xlink:href="#DejaVuSans-47"/>
       <use x="160.9375" xlink:href="#DejaVuSans-49"/>
       <use x="224.560547" xlink:href="#DejaVuSans-48"/>
       <use x="288.183594" xlink:href="#DejaVuSans-47"/>
       <use x="321.875" xlink:href="#DejaVuSans-50"/>
       <use x="385.498047" xlink:href="#DejaVuSans-48"/>
       <use x="449.121094" xlink:href="#DejaVuSans-50"/>
       <use x="512.744141" xlink:href="#DejaVuSans-48"/>
      </g>
     </g>
    </g>
    <g id="xtick_22">
     <g id="line2d_22">
      <g>
       <use style="stroke:#000000;stroke-width:0.8;" x="867.266023" xlink:href="#m3c6bdc13c2" y="460.0025"/>
      </g>
     </g>
     <g id="text_22">
      <!-- 25/10/2020 -->
      <g transform="translate(864.979153 525.083812)rotate(-80)scale(0.1 -0.1)">
       <use xlink:href="#DejaVuSans-50"/>
       <use x="63.623047" xlink:href="#DejaVuSans-53"/>
       <use x="127.246094" xlink:href="#DejaVuSans-47"/>
       <use x="160.9375" xlink:href="#DejaVuSans-49"/>
       <use x="224.560547" xlink:href="#DejaVuSans-48"/>
       <use x="288.183594" xlink:href="#DejaVuSans-47"/>
       <use x="321.875" xlink:href="#DejaVuSans-50"/>
       <use x="385.498047" xlink:href="#DejaVuSans-48"/>
       <use x="449.121094" xlink:href="#DejaVuSans-50"/>
       <use x="512.744141" xlink:href="#DejaVuSans-48"/>
      </g>
     </g>
    </g>
    <g id="text_23">
     <!-- Dia da confirmação do óbito -->
     <g transform="translate(389.72875 538.861196)scale(0.12 -0.12)">
      <defs>
       <path d="M 19.671875 64.796875 
L 19.671875 8.109375 
L 31.59375 8.109375 
Q 46.6875 8.109375 53.6875 14.9375 
Q 60.6875 21.78125 60.6875 36.53125 
Q 60.6875 51.171875 53.6875 57.984375 
Q 46.6875 64.796875 31.59375 64.796875 
z
M 9.8125 72.90625 
L 30.078125 72.90625 
Q 51.265625 72.90625 61.171875 64.09375 
Q 71.09375 55.28125 71.09375 36.53125 
Q 71.09375 17.671875 61.125 8.828125 
Q 51.171875 0 30.078125 0 
L 9.8125 0 
z
" id="DejaVuSans-68"/>
       <path d="M 9.421875 54.6875 
L 18.40625 54.6875 
L 18.40625 0 
L 9.421875 0 
z
M 9.421875 75.984375 
L 18.40625 75.984375 
L 18.40625 64.59375 
L 9.421875 64.59375 
z
" id="DejaVuSans-105"/>
       <path d="M 34.28125 27.484375 
Q 23.390625 27.484375 19.1875 25 
Q 14.984375 22.515625 14.984375 16.5 
Q 14.984375 11.71875 18.140625 8.90625 
Q 21.296875 6.109375 26.703125 6.109375 
Q 34.1875 6.109375 38.703125 11.40625 
Q 43.21875 16.703125 43.21875 25.484375 
L 43.21875 27.484375 
z
M 52.203125 31.203125 
L 52.203125 0 
L 43.21875 0 
L 43.21875 8.296875 
Q 40.140625 3.328125 35.546875 0.953125 
Q 30.953125 -1.421875 24.3125 -1.421875 
Q 15.921875 -1.421875 10.953125 3.296875 
Q 6 8.015625 6 15.921875 
Q 6 25.140625 12.171875 29.828125 
Q 18.359375 34.515625 30.609375 34.515625 
L 43.21875 34.515625 
L 43.21875 35.40625 
Q 43.21875 41.609375 39.140625 45 
Q 35.0625 48.390625 27.6875 48.390625 
Q 23 48.390625 18.546875 47.265625 
Q 14.109375 46.140625 10.015625 43.890625 
L 10.015625 52.203125 
Q 14.9375 54.109375 19.578125 55.046875 
Q 24.21875 56 28.609375 56 
Q 40.484375 56 46.34375 49.84375 
Q 52.203125 43.703125 52.203125 31.203125 
z
" id="DejaVuSans-97"/>
       <path id="DejaVuSans-32"/>
       <path d="M 45.40625 46.390625 
L 45.40625 75.984375 
L 54.390625 75.984375 
L 54.390625 0 
L 45.40625 0 
L 45.40625 8.203125 
Q 42.578125 3.328125 38.25 0.953125 
Q 33.9375 -1.421875 27.875 -1.421875 
Q 17.96875 -1.421875 11.734375 6.484375 
Q 5.515625 14.40625 5.515625 27.296875 
Q 5.515625 40.1875 11.734375 48.09375 
Q 17.96875 56 27.875 56 
Q 33.9375 56 38.25 53.625 
Q 42.578125 51.265625 45.40625 46.390625 
z
M 14.796875 27.296875 
Q 14.796875 17.390625 18.875 11.75 
Q 22.953125 6.109375 30.078125 6.109375 
Q 37.203125 6.109375 41.296875 11.75 
Q 45.40625 17.390625 45.40625 27.296875 
Q 45.40625 37.203125 41.296875 42.84375 
Q 37.203125 48.484375 30.078125 48.484375 
Q 22.953125 48.484375 18.875 42.84375 
Q 14.796875 37.203125 14.796875 27.296875 
z
" id="DejaVuSans-100"/>
       <path d="M 48.78125 52.59375 
L 48.78125 44.1875 
Q 44.96875 46.296875 41.140625 47.34375 
Q 37.3125 48.390625 33.40625 48.390625 
Q 24.65625 48.390625 19.8125 42.84375 
Q 14.984375 37.3125 14.984375 27.296875 
Q 14.984375 17.28125 19.8125 11.734375 
Q 24.65625 6.203125 33.40625 6.203125 
Q 37.3125 6.203125 41.140625 7.25 
Q 44.96875 8.296875 48.78125 10.40625 
L 48.78125 2.09375 
Q 45.015625 0.34375 40.984375 -0.53125 
Q 36.96875 -1.421875 32.421875 -1.421875 
Q 20.0625 -1.421875 12.78125 6.34375 
Q 5.515625 14.109375 5.515625 27.296875 
Q 5.515625 40.671875 12.859375 48.328125 
Q 20.21875 56 33.015625 56 
Q 37.15625 56 41.109375 55.140625 
Q 45.0625 54.296875 48.78125 52.59375 
z
" id="DejaVuSans-99"/>
       <path d="M 30.609375 48.390625 
Q 23.390625 48.390625 19.1875 42.75 
Q 14.984375 37.109375 14.984375 27.296875 
Q 14.984375 17.484375 19.15625 11.84375 
Q 23.34375 6.203125 30.609375 6.203125 
Q 37.796875 6.203125 41.984375 11.859375 
Q 46.1875 17.53125 46.1875 27.296875 
Q 46.1875 37.015625 41.984375 42.703125 
Q 37.796875 48.390625 30.609375 48.390625 
z
M 30.609375 56 
Q 42.328125 56 49.015625 48.375 
Q 55.71875 40.765625 55.71875 27.296875 
Q 55.71875 13.875 49.015625 6.21875 
Q 42.328125 -1.421875 30.609375 -1.421875 
Q 18.84375 -1.421875 12.171875 6.21875 
Q 5.515625 13.875 5.515625 27.296875 
Q 5.515625 40.765625 12.171875 48.375 
Q 18.84375 56 30.609375 56 
z
" id="DejaVuSans-111"/>
       <path d="M 54.890625 33.015625 
L 54.890625 0 
L 45.90625 0 
L 45.90625 32.71875 
Q 45.90625 40.484375 42.875 44.328125 
Q 39.84375 48.1875 33.796875 48.1875 
Q 26.515625 48.1875 22.3125 43.546875 
Q 18.109375 38.921875 18.109375 30.90625 
L 18.109375 0 
L 9.078125 0 
L 9.078125 54.6875 
L 18.109375 54.6875 
L 18.109375 46.1875 
Q 21.34375 51.125 25.703125 53.5625 
Q 30.078125 56 35.796875 56 
Q 45.21875 56 50.046875 50.171875 
Q 54.890625 44.34375 54.890625 33.015625 
z
" id="DejaVuSans-110"/>
       <path d="M 37.109375 75.984375 
L 37.109375 68.5 
L 28.515625 68.5 
Q 23.6875 68.5 21.796875 66.546875 
Q 19.921875 64.59375 19.921875 59.515625 
L 19.921875 54.6875 
L 34.71875 54.6875 
L 34.71875 47.703125 
L 19.921875 47.703125 
L 19.921875 0 
L 10.890625 0 
L 10.890625 47.703125 
L 2.296875 47.703125 
L 2.296875 54.6875 
L 10.890625 54.6875 
L 10.890625 58.5 
Q 10.890625 67.625 15.140625 71.796875 
Q 19.390625 75.984375 28.609375 75.984375 
z
" id="DejaVuSans-102"/>
       <path d="M 41.109375 46.296875 
Q 39.59375 47.171875 37.8125 47.578125 
Q 36.03125 48 33.890625 48 
Q 26.265625 48 22.1875 43.046875 
Q 18.109375 38.09375 18.109375 28.8125 
L 18.109375 0 
L 9.078125 0 
L 9.078125 54.6875 
L 18.109375 54.6875 
L 18.109375 46.1875 
Q 20.953125 51.171875 25.484375 53.578125 
Q 30.03125 56 36.53125 56 
Q 37.453125 56 38.578125 55.875 
Q 39.703125 55.765625 41.0625 55.515625 
z
" id="DejaVuSans-114"/>
       <path d="M 52 44.1875 
Q 55.375 50.25 60.0625 53.125 
Q 64.75 56 71.09375 56 
Q 79.640625 56 84.28125 50.015625 
Q 88.921875 44.046875 88.921875 33.015625 
L 88.921875 0 
L 79.890625 0 
L 79.890625 32.71875 
Q 79.890625 40.578125 77.09375 44.375 
Q 74.3125 48.1875 68.609375 48.1875 
Q 61.625 48.1875 57.5625 43.546875 
Q 53.515625 38.921875 53.515625 30.90625 
L 53.515625 0 
L 44.484375 0 
L 44.484375 32.71875 
Q 44.484375 40.625 41.703125 44.40625 
Q 38.921875 48.1875 33.109375 48.1875 
Q 26.21875 48.1875 22.15625 43.53125 
Q 18.109375 38.875 18.109375 30.90625 
L 18.109375 0 
L 9.078125 0 
L 9.078125 54.6875 
L 18.109375 54.6875 
L 18.109375 46.1875 
Q 21.1875 51.21875 25.484375 53.609375 
Q 29.78125 56 35.6875 56 
Q 41.65625 56 45.828125 52.96875 
Q 50 49.953125 52 44.1875 
z
" id="DejaVuSans-109"/>
       <path d="M 48.78125 52.59375 
L 48.78125 44.1875 
Q 44.96875 46.296875 41.140625 47.34375 
Q 37.3125 48.390625 33.40625 48.390625 
Q 24.65625 48.390625 19.8125 42.84375 
Q 14.984375 37.3125 14.984375 27.296875 
Q 14.984375 17.28125 19.8125 11.734375 
Q 24.65625 6.203125 33.40625 6.203125 
Q 37.3125 6.203125 41.140625 7.25 
Q 44.96875 8.296875 48.78125 10.40625 
L 48.78125 2.09375 
Q 45.015625 0.34375 40.984375 -0.53125 
Q 36.96875 -1.421875 32.421875 -1.421875 
Q 20.0625 -1.421875 12.78125 6.34375 
Q 5.515625 14.109375 5.515625 27.296875 
Q 5.515625 40.671875 12.859375 48.328125 
Q 20.21875 56 33.015625 56 
Q 37.15625 56 41.109375 55.140625 
Q 45.0625 54.296875 48.78125 52.59375 
z
M 36.109375 0 
Q 38.78125 -3.03125 40.09375 -5.59375 
Q 41.421875 -8.15625 41.421875 -10.5 
Q 41.421875 -14.84375 38.484375 -17.0625 
Q 35.5625 -19.28125 29.796875 -19.28125 
Q 27.5625 -19.28125 25.4375 -18.984375 
Q 23.3125 -18.703125 21.203125 -18.109375 
L 21.203125 -11.71875 
Q 22.875 -12.546875 24.671875 -12.90625 
Q 26.484375 -13.28125 28.78125 -13.28125 
Q 31.65625 -13.28125 33.125 -12.109375 
Q 34.59375 -10.9375 34.59375 -8.6875 
Q 34.59375 -7.234375 33.53125 -5.109375 
Q 32.484375 -2.984375 30.296875 0 
z
" id="DejaVuSans-231"/>
       <path d="M 34.28125 27.484375 
Q 23.390625 27.484375 19.1875 25 
Q 14.984375 22.515625 14.984375 16.5 
Q 14.984375 11.71875 18.140625 8.90625 
Q 21.296875 6.109375 26.703125 6.109375 
Q 34.1875 6.109375 38.703125 11.40625 
Q 43.21875 16.703125 43.21875 25.484375 
L 43.21875 27.484375 
z
M 52.203125 31.203125 
L 52.203125 0 
L 43.21875 0 
L 43.21875 8.296875 
Q 40.140625 3.328125 35.546875 0.953125 
Q 30.953125 -1.421875 24.3125 -1.421875 
Q 15.921875 -1.421875 10.953125 3.296875 
Q 6 8.015625 6 15.921875 
Q 6 25.140625 12.171875 29.828125 
Q 18.359375 34.515625 30.609375 34.515625 
L 43.21875 34.515625 
L 43.21875 35.40625 
Q 43.21875 41.609375 39.140625 45 
Q 35.0625 48.390625 27.6875 48.390625 
Q 23 48.390625 18.546875 47.265625 
Q 14.109375 46.140625 10.015625 43.890625 
L 10.015625 52.203125 
Q 14.9375 54.109375 19.578125 55.046875 
Q 24.21875 56 28.609375 56 
Q 40.484375 56 46.34375 49.84375 
Q 52.203125 43.703125 52.203125 31.203125 
z
M 28.8125 66.890625 
L 26.015625 69.578125 
Q 24.953125 70.5625 24.140625 71.015625 
Q 23.34375 71.484375 22.703125 71.484375 
Q 20.84375 71.484375 19.96875 69.703125 
Q 19.09375 67.921875 18.984375 63.921875 
L 12.890625 63.921875 
Q 12.984375 70.515625 15.46875 74.09375 
Q 17.96875 77.6875 22.40625 77.6875 
Q 24.265625 77.6875 25.828125 77 
Q 27.390625 76.3125 29.203125 74.703125 
L 31.984375 72.015625 
Q 33.046875 71.046875 33.859375 70.578125 
Q 34.671875 70.125 35.296875 70.125 
Q 37.15625 70.125 38.03125 71.90625 
Q 38.90625 73.6875 39.015625 77.6875 
L 45.109375 77.6875 
Q 45.015625 71.09375 42.515625 67.5 
Q 40.03125 63.921875 35.59375 63.921875 
Q 33.734375 63.921875 32.171875 64.59375 
Q 30.609375 65.28125 28.8125 66.890625 
z
" id="DejaVuSans-227"/>
       <path d="M 30.609375 48.390625 
Q 23.390625 48.390625 19.1875 42.75 
Q 14.984375 37.109375 14.984375 27.296875 
Q 14.984375 17.484375 19.15625 11.84375 
Q 23.34375 6.203125 30.609375 6.203125 
Q 37.796875 6.203125 41.984375 11.859375 
Q 46.1875 17.53125 46.1875 27.296875 
Q 46.1875 37.015625 41.984375 42.703125 
Q 37.796875 48.390625 30.609375 48.390625 
z
M 30.609375 56 
Q 42.328125 56 49.015625 48.375 
Q 55.71875 40.765625 55.71875 27.296875 
Q 55.71875 13.875 49.015625 6.21875 
Q 42.328125 -1.421875 30.609375 -1.421875 
Q 18.84375 -1.421875 12.171875 6.21875 
Q 5.515625 13.875 5.515625 27.296875 
Q 5.515625 40.765625 12.171875 48.375 
Q 18.84375 56 30.609375 56 
z
M 37.40625 79.984375 
L 47.125 79.984375 
L 31.21875 61.625 
L 23.734375 61.625 
z
" id="DejaVuSans-243"/>
       <path d="M 48.6875 27.296875 
Q 48.6875 37.203125 44.609375 42.84375 
Q 40.53125 48.484375 33.40625 48.484375 
Q 26.265625 48.484375 22.1875 42.84375 
Q 18.109375 37.203125 18.109375 27.296875 
Q 18.109375 17.390625 22.1875 11.75 
Q 26.265625 6.109375 33.40625 6.109375 
Q 40.53125 6.109375 44.609375 11.75 
Q 48.6875 17.390625 48.6875 27.296875 
z
M 18.109375 46.390625 
Q 20.953125 51.265625 25.265625 53.625 
Q 29.59375 56 35.59375 56 
Q 45.5625 56 51.78125 48.09375 
Q 58.015625 40.1875 58.015625 27.296875 
Q 58.015625 14.40625 51.78125 6.484375 
Q 45.5625 -1.421875 35.59375 -1.421875 
Q 29.59375 -1.421875 25.265625 0.953125 
Q 20.953125 3.328125 18.109375 8.203125 
L 18.109375 0 
L 9.078125 0 
L 9.078125 75.984375 
L 18.109375 75.984375 
z
" id="DejaVuSans-98"/>
       <path d="M 18.3125 70.21875 
L 18.3125 54.6875 
L 36.8125 54.6875 
L 36.8125 47.703125 
L 18.3125 47.703125 
L 18.3125 18.015625 
Q 18.3125 11.328125 20.140625 9.421875 
Q 21.96875 7.515625 27.59375 7.515625 
L 36.8125 7.515625 
L 36.8125 0 
L 27.59375 0 
Q 17.1875 0 13.234375 3.875 
Q 9.28125 7.765625 9.28125 18.015625 
L 9.28125 47.703125 
L 2.6875 47.703125 
L 2.6875 54.6875 
L 9.28125 54.6875 
L 9.28125 70.21875 
z
" id="DejaVuSans-116"/>
      </defs>
      <use xlink:href="#DejaVuSans-68"/>
      <use x="77.001953" xlink:href="#DejaVuSans-105"/>
      <use x="104.785156" xlink:href="#DejaVuSans-97"/>
      <use x="166.064453" xlink:href="#DejaVuSans-32"/>
      <use x="197.851562" xlink:href="#DejaVuSans-100"/>
      <use x="261.328125" xlink:href="#DejaVuSans-97"/>
      <use x="322.607422" xlink:href="#DejaVuSans-32"/>
      <use x="354.394531" xlink:href="#DejaVuSans-99"/>
      <use x="409.375" xlink:href="#DejaVuSans-111"/>
      <use x="470.556641" xlink:href="#DejaVuSans-110"/>
      <use x="533.935547" xlink:href="#DejaVuSans-102"/>
      <use x="569.140625" xlink:href="#DejaVuSans-105"/>
      <use x="596.923828" xlink:href="#DejaVuSans-114"/>
      <use x="636.287109" xlink:href="#DejaVuSans-109"/>
      <use x="733.699219" xlink:href="#DejaVuSans-97"/>
      <use x="794.978516" xlink:href="#DejaVuSans-231"/>
      <use x="849.958984" xlink:href="#DejaVuSans-227"/>
      <use x="911.238281" xlink:href="#DejaVuSans-111"/>
      <use x="972.419922" xlink:href="#DejaVuSans-32"/>
      <use x="1004.207031" xlink:href="#DejaVuSans-100"/>
      <use x="1067.683594" xlink:href="#DejaVuSans-111"/>
      <use x="1128.865234" xlink:href="#DejaVuSans-32"/>
      <use x="1160.652344" xlink:href="#DejaVuSans-243"/>
      <use x="1221.833984" xlink:href="#DejaVuSans-98"/>
      <use x="1285.310547" xlink:href="#DejaVuSans-105"/>
      <use x="1313.09375" xlink:href="#DejaVuSans-116"/>
      <use x="1352.302734" xlink:href="#DejaVuSans-111"/>
     </g>
    </g>
   </g>
   <g id="matplotlib.axis_2">
    <g id="ytick_1">
     <g id="line2d_23">
      <defs>
       <path d="M 0 0 
L -3.5 0 
" id="ma064737f0c" style="stroke:#000000;stroke-width:0.8;"/>
      </defs>
      <g>
       <use style="stroke:#000000;stroke-width:0.8;" x="42.53875" xlink:href="#ma064737f0c" y="440.366136"/>
      </g>
     </g>
     <g id="text_24">
      <!-- 0 -->
      <g transform="translate(29.17625 444.165355)scale(0.1 -0.1)">
       <use xlink:href="#DejaVuSans-48"/>
      </g>
     </g>
    </g>
    <g id="ytick_2">
     <g id="line2d_24">
      <g>
       <use style="stroke:#000000;stroke-width:0.8;" x="42.53875" xlink:href="#ma064737f0c" y="368.961178"/>
      </g>
     </g>
     <g id="text_25">
      <!-- 2 -->
      <g transform="translate(29.17625 372.760396)scale(0.1 -0.1)">
       <use xlink:href="#DejaVuSans-50"/>
      </g>
     </g>
    </g>
    <g id="ytick_3">
     <g id="line2d_25">
      <g>
       <use style="stroke:#000000;stroke-width:0.8;" x="42.53875" xlink:href="#ma064737f0c" y="297.556219"/>
      </g>
     </g>
     <g id="text_26">
      <!-- 4 -->
      <g transform="translate(29.17625 301.355438)scale(0.1 -0.1)">
       <use xlink:href="#DejaVuSans-52"/>
      </g>
     </g>
    </g>
    <g id="ytick_4">
     <g id="line2d_26">
      <g>
       <use style="stroke:#000000;stroke-width:0.8;" x="42.53875" xlink:href="#ma064737f0c" y="226.15126"/>
      </g>
     </g>
     <g id="text_27">
      <!-- 6 -->
      <g transform="translate(29.17625 229.950479)scale(0.1 -0.1)">
       <use xlink:href="#DejaVuSans-54"/>
      </g>
     </g>
    </g>
    <g id="ytick_5">
     <g id="line2d_27">
      <g>
       <use style="stroke:#000000;stroke-width:0.8;" x="42.53875" xlink:href="#ma064737f0c" y="154.746302"/>
      </g>
     </g>
     <g id="text_28">
      <!-- 8 -->
      <g transform="translate(29.17625 158.54552)scale(0.1 -0.1)">
       <use xlink:href="#DejaVuSans-56"/>
      </g>
     </g>
    </g>
    <g id="ytick_6">
     <g id="line2d_28">
      <g>
       <use style="stroke:#000000;stroke-width:0.8;" x="42.53875" xlink:href="#ma064737f0c" y="83.341343"/>
      </g>
     </g>
     <g id="text_29">
      <!-- 10 -->
      <g transform="translate(22.81375 87.140562)scale(0.1 -0.1)">
       <use xlink:href="#DejaVuSans-49"/>
       <use x="63.623047" xlink:href="#DejaVuSans-48"/>
      </g>
     </g>
    </g>
    <g id="text_30">
     <!-- Número de óbitos no dia -->
     <g transform="translate(16.318125 317.884062)rotate(-90)scale(0.12 -0.12)">
      <defs>
       <path d="M 9.8125 72.90625 
L 23.09375 72.90625 
L 55.421875 11.921875 
L 55.421875 72.90625 
L 64.984375 72.90625 
L 64.984375 0 
L 51.703125 0 
L 19.390625 60.984375 
L 19.390625 0 
L 9.8125 0 
z
" id="DejaVuSans-78"/>
       <path d="M 8.5 21.578125 
L 8.5 54.6875 
L 17.484375 54.6875 
L 17.484375 21.921875 
Q 17.484375 14.15625 20.5 10.265625 
Q 23.53125 6.390625 29.59375 6.390625 
Q 36.859375 6.390625 41.078125 11.03125 
Q 45.3125 15.671875 45.3125 23.6875 
L 45.3125 54.6875 
L 54.296875 54.6875 
L 54.296875 0 
L 45.3125 0 
L 45.3125 8.40625 
Q 42.046875 3.421875 37.71875 1 
Q 33.40625 -1.421875 27.6875 -1.421875 
Q 18.265625 -1.421875 13.375 4.4375 
Q 8.5 10.296875 8.5 21.578125 
z
M 31.109375 56 
z
M 37.78125 79.984375 
L 47.5 79.984375 
L 31.59375 61.625 
L 24.109375 61.625 
z
" id="DejaVuSans-250"/>
       <path d="M 56.203125 29.59375 
L 56.203125 25.203125 
L 14.890625 25.203125 
Q 15.484375 15.921875 20.484375 11.0625 
Q 25.484375 6.203125 34.421875 6.203125 
Q 39.59375 6.203125 44.453125 7.46875 
Q 49.3125 8.734375 54.109375 11.28125 
L 54.109375 2.78125 
Q 49.265625 0.734375 44.1875 -0.34375 
Q 39.109375 -1.421875 33.890625 -1.421875 
Q 20.796875 -1.421875 13.15625 6.1875 
Q 5.515625 13.8125 5.515625 26.8125 
Q 5.515625 40.234375 12.765625 48.109375 
Q 20.015625 56 32.328125 56 
Q 43.359375 56 49.78125 48.890625 
Q 56.203125 41.796875 56.203125 29.59375 
z
M 47.21875 32.234375 
Q 47.125 39.59375 43.09375 43.984375 
Q 39.0625 48.390625 32.421875 48.390625 
Q 24.90625 48.390625 20.390625 44.140625 
Q 15.875 39.890625 15.1875 32.171875 
z
" id="DejaVuSans-101"/>
       <path d="M 44.28125 53.078125 
L 44.28125 44.578125 
Q 40.484375 46.53125 36.375 47.5 
Q 32.28125 48.484375 27.875 48.484375 
Q 21.1875 48.484375 17.84375 46.4375 
Q 14.5 44.390625 14.5 40.28125 
Q 14.5 37.15625 16.890625 35.375 
Q 19.28125 33.59375 26.515625 31.984375 
L 29.59375 31.296875 
Q 39.15625 29.25 43.1875 25.515625 
Q 47.21875 21.78125 47.21875 15.09375 
Q 47.21875 7.46875 41.1875 3.015625 
Q 35.15625 -1.421875 24.609375 -1.421875 
Q 20.21875 -1.421875 15.453125 -0.5625 
Q 10.6875 0.296875 5.421875 2 
L 5.421875 11.28125 
Q 10.40625 8.6875 15.234375 7.390625 
Q 20.0625 6.109375 24.8125 6.109375 
Q 31.15625 6.109375 34.5625 8.28125 
Q 37.984375 10.453125 37.984375 14.40625 
Q 37.984375 18.0625 35.515625 20.015625 
Q 33.0625 21.96875 24.703125 23.78125 
L 21.578125 24.515625 
Q 13.234375 26.265625 9.515625 29.90625 
Q 5.8125 33.546875 5.8125 39.890625 
Q 5.8125 47.609375 11.28125 51.796875 
Q 16.75 56 26.8125 56 
Q 31.78125 56 36.171875 55.265625 
Q 40.578125 54.546875 44.28125 53.078125 
z
" id="DejaVuSans-115"/>
      </defs>
      <use xlink:href="#DejaVuSans-78"/>
      <use x="74.804688" xlink:href="#DejaVuSans-250"/>
      <use x="138.183594" xlink:href="#DejaVuSans-109"/>
      <use x="235.595703" xlink:href="#DejaVuSans-101"/>
      <use x="297.119141" xlink:href="#DejaVuSans-114"/>
      <use x="335.982422" xlink:href="#DejaVuSans-111"/>
      <use x="397.164062" xlink:href="#DejaVuSans-32"/>
      <use x="428.951172" xlink:href="#DejaVuSans-100"/>
      <use x="492.427734" xlink:href="#DejaVuSans-101"/>
      <use x="553.951172" xlink:href="#DejaVuSans-32"/>
      <use x="585.738281" xlink:href="#DejaVuSans-243"/>
      <use x="646.919922" xlink:href="#DejaVuSans-98"/>
      <use x="710.396484" xlink:href="#DejaVuSans-105"/>
      <use x="738.179688" xlink:href="#DejaVuSans-116"/>
      <use x="777.388672" xlink:href="#DejaVuSans-111"/>
      <use x="838.570312" xlink:href="#DejaVuSans-115"/>
      <use x="890.669922" xlink:href="#DejaVuSans-32"/>
      <use x="922.457031" xlink:href="#DejaVuSans-110"/>
      <use x="985.835938" xlink:href="#DejaVuSans-111"/>
      <use x="1047.017578" xlink:href="#DejaVuSans-32"/>
      <use x="1078.804688" xlink:href="#DejaVuSans-100"/>
      <use x="1142.28125" xlink:href="#DejaVuSans-105"/>
      <use x="1170.064453" xlink:href="#DejaVuSans-97"/>
     </g>
    </g>
   </g>
   <g id="line2d_29">
    <path clip-path="url(#pd8eb27c67f)" d="M 81.811477 404.663657 
L 85.569633 440.366136 
L 89.327789 440.366136 
L 93.085944 404.663657 
L 96.8441 404.663657 
L 100.602256 440.366136 
L 119.393034 440.366136 
L 123.15119 404.663657 
L 126.909346 440.366136 
L 149.45828 440.366136 
L 153.216436 404.663657 
L 156.974592 440.366136 
L 168.249059 440.366136 
L 172.007215 368.961178 
L 175.76537 368.961178 
L 183.281682 440.366136 
L 187.039837 404.663657 
L 190.797993 440.366136 
L 213.346927 440.366136 
L 217.105083 404.663657 
L 220.863239 440.366136 
L 235.895862 440.366136 
L 239.654018 404.663657 
L 243.412173 440.366136 
L 254.68664 440.366136 
L 258.444796 404.663657 
L 262.202952 440.366136 
L 265.961108 404.663657 
L 269.719263 404.663657 
L 273.477419 440.366136 
L 280.99373 440.366136 
L 284.751886 404.663657 
L 288.510042 440.366136 
L 292.268198 404.663657 
L 296.026353 440.366136 
L 299.784509 368.961178 
L 303.542665 440.366136 
L 307.30082 368.961178 
L 311.058976 368.961178 
L 314.817132 261.85374 
L 318.575288 440.366136 
L 322.333443 404.663657 
L 326.091599 440.366136 
L 329.849755 404.663657 
L 333.607911 333.258698 
L 337.366066 368.961178 
L 341.124222 333.258698 
L 344.882378 368.961178 
L 348.640533 297.556219 
L 352.398689 297.556219 
L 356.156845 261.85374 
L 359.915001 333.258698 
L 363.673156 297.556219 
L 367.431312 190.448781 
L 371.189468 119.043822 
L 374.947623 297.556219 
L 378.705779 404.663657 
L 382.463935 404.663657 
L 386.222091 440.366136 
L 389.980246 261.85374 
L 393.738402 368.961178 
L 397.496558 297.556219 
L 401.254713 190.448781 
L 405.012869 226.15126 
L 408.771025 297.556219 
L 412.529181 297.556219 
L 416.287336 190.448781 
L 420.045492 261.85374 
L 423.803648 261.85374 
L 427.561804 333.258698 
L 431.319959 297.556219 
L 435.078115 154.746302 
L 438.836271 297.556219 
L 442.594426 226.15126 
L 446.352582 333.258698 
L 450.110738 261.85374 
L 453.868894 333.258698 
L 457.627049 368.961178 
L 461.385205 368.961178 
L 465.143361 297.556219 
L 468.901516 368.961178 
L 472.659672 190.448781 
L 476.417828 297.556219 
L 480.175984 333.258698 
L 483.934139 261.85374 
L 487.692295 83.341343 
L 491.450451 440.366136 
L 495.208606 368.961178 
L 498.966762 190.448781 
L 502.724918 368.961178 
L 506.483074 297.556219 
L 510.241229 368.961178 
L 513.999385 226.15126 
L 517.757541 333.258698 
L 521.515696 119.043822 
L 525.273852 297.556219 
L 529.032008 333.258698 
L 536.548319 333.258698 
L 540.306475 261.85374 
L 544.064631 83.341343 
L 547.822787 333.258698 
L 551.580942 261.85374 
L 555.339098 333.258698 
L 559.097254 368.961178 
L 566.613565 226.15126 
L 570.371721 297.556219 
L 574.129877 297.556219 
L 577.888032 368.961178 
L 581.646188 297.556219 
L 585.404344 119.043822 
L 589.162499 226.15126 
L 592.920655 261.85374 
L 596.678811 333.258698 
L 600.436967 190.448781 
L 604.195122 83.341343 
L 607.953278 83.341343 
L 611.711434 297.556219 
L 615.469589 333.258698 
L 619.227745 190.448781 
L 622.985901 368.961178 
L 626.744057 226.15126 
L 630.502212 226.15126 
L 634.260368 190.448781 
L 638.018524 83.341343 
L 641.77668 261.85374 
L 649.292991 190.448781 
L 653.051147 226.15126 
L 656.809302 226.15126 
L 660.567458 119.043822 
L 664.325614 47.638864 
L 668.08377 154.746302 
L 671.841925 333.258698 
L 675.600081 190.448781 
L 679.358237 154.746302 
L 683.116392 261.85374 
L 686.874548 226.15126 
L 690.632704 119.043822 
L 694.39086 297.556219 
L 698.149015 297.556219 
L 701.907171 154.746302 
L 705.665327 261.85374 
L 709.423482 226.15126 
L 713.181638 333.258698 
L 716.939794 368.961178 
L 720.69795 226.15126 
L 724.456105 190.448781 
L 728.214261 190.448781 
L 731.972417 226.15126 
L 735.730573 297.556219 
L 739.488728 119.043822 
L 743.246884 119.043822 
L 747.00504 297.556219 
L 750.763195 226.15126 
L 754.521351 261.85374 
L 758.279507 404.663657 
L 762.037663 261.85374 
L 765.795818 333.258698 
L 769.553974 261.85374 
L 773.31213 368.961178 
L 780.828441 226.15126 
L 792.102908 226.15126 
L 795.861064 333.258698 
L 799.61922 297.556219 
L 803.377375 297.556219 
L 807.135531 119.043822 
L 810.893687 297.556219 
L 814.651843 333.258698 
L 818.409998 190.448781 
L 822.168154 333.258698 
L 825.92631 333.258698 
L 829.684466 404.663657 
L 833.442621 333.258698 
L 837.200777 297.556219 
L 840.958933 297.556219 
L 844.717088 368.961178 
L 848.475244 368.961178 
L 852.2334 261.85374 
L 855.991556 333.258698 
L 859.749711 261.85374 
L 863.507867 333.258698 
L 867.266023 297.556219 
L 867.266023 297.556219 
" style="fill:none;stroke:#0000ff;stroke-dasharray:7.4,3.2;stroke-dashoffset:0;stroke-width:2;"/>
    <defs>
     <path d="M 0 2.5 
C 0.663008 2.5 1.29895 2.236584 1.767767 1.767767 
C 2.236584 1.29895 2.5 0.663008 2.5 0 
C 2.5 -0.663008 2.236584 -1.29895 1.767767 -1.767767 
C 1.29895 -2.236584 0.663008 -2.5 0 -2.5 
C -0.663008 -2.5 -1.29895 -2.236584 -1.767767 -1.767767 
C -2.236584 -1.29895 -2.5 -0.663008 -2.5 0 
C -2.5 0.663008 -2.236584 1.29895 -1.767767 1.767767 
C -1.29895 2.236584 -0.663008 2.5 0 2.5 
z
" id="mb5e071c378" style="stroke:#0000ff;stroke-width:4;"/>
    </defs>
    <g clip-path="url(#pd8eb27c67f)">
     <use style="fill:#0000ff;stroke:#0000ff;stroke-width:4;" x="81.811477" xlink:href="#mb5e071c378" y="404.663657"/>
     <use style="fill:#0000ff;stroke:#0000ff;stroke-width:4;" x="85.569633" xlink:href="#mb5e071c378" y="440.366136"/>
     <use style="fill:#0000ff;stroke:#0000ff;stroke-width:4;" x="89.327789" xlink:href="#mb5e071c378" y="440.366136"/>
     <use style="fill:#0000ff;stroke:#0000ff;stroke-width:4;" x="93.085944" xlink:href="#mb5e071c378" y="404.663657"/>
     <use style="fill:#0000ff;stroke:#0000ff;stroke-width:4;" x="96.8441" xlink:href="#mb5e071c378" y="404.663657"/>
     <use style="fill:#0000ff;stroke:#0000ff;stroke-width:4;" x="100.602256" xlink:href="#mb5e071c378" y="440.366136"/>
     <use style="fill:#0000ff;stroke:#0000ff;stroke-width:4;" x="104.360412" xlink:href="#mb5e071c378" y="440.366136"/>
     <use style="fill:#0000ff;stroke:#0000ff;stroke-width:4;" x="108.118567" xlink:href="#mb5e071c378" y="440.366136"/>
     <use style="fill:#0000ff;stroke:#0000ff;stroke-width:4;" x="111.876723" xlink:href="#mb5e071c378" y="440.366136"/>
     <use style="fill:#0000ff;stroke:#0000ff;stroke-width:4;" x="115.634879" xlink:href="#mb5e071c378" y="440.366136"/>
     <use style="fill:#0000ff;stroke:#0000ff;stroke-width:4;" x="119.393034" xlink:href="#mb5e071c378" y="440.366136"/>
     <use style="fill:#0000ff;stroke:#0000ff;stroke-width:4;" x="123.15119" xlink:href="#mb5e071c378" y="404.663657"/>
     <use style="fill:#0000ff;stroke:#0000ff;stroke-width:4;" x="126.909346" xlink:href="#mb5e071c378" y="440.366136"/>
     <use style="fill:#0000ff;stroke:#0000ff;stroke-width:4;" x="130.667502" xlink:href="#mb5e071c378" y="440.366136"/>
     <use style="fill:#0000ff;stroke:#0000ff;stroke-width:4;" x="134.425657" xlink:href="#mb5e071c378" y="440.366136"/>
     <use style="fill:#0000ff;stroke:#0000ff;stroke-width:4;" x="138.183813" xlink:href="#mb5e071c378" y="440.366136"/>
     <use style="fill:#0000ff;stroke:#0000ff;stroke-width:4;" x="141.941969" xlink:href="#mb5e071c378" y="440.366136"/>
     <use style="fill:#0000ff;stroke:#0000ff;stroke-width:4;" x="145.700125" xlink:href="#mb5e071c378" y="440.366136"/>
     <use style="fill:#0000ff;stroke:#0000ff;stroke-width:4;" x="149.45828" xlink:href="#mb5e071c378" y="440.366136"/>
     <use style="fill:#0000ff;stroke:#0000ff;stroke-width:4;" x="153.216436" xlink:href="#mb5e071c378" y="404.663657"/>
     <use style="fill:#0000ff;stroke:#0000ff;stroke-width:4;" x="156.974592" xlink:href="#mb5e071c378" y="440.366136"/>
     <use style="fill:#0000ff;stroke:#0000ff;stroke-width:4;" x="160.732747" xlink:href="#mb5e071c378" y="440.366136"/>
     <use style="fill:#0000ff;stroke:#0000ff;stroke-width:4;" x="164.490903" xlink:href="#mb5e071c378" y="440.366136"/>
     <use style="fill:#0000ff;stroke:#0000ff;stroke-width:4;" x="168.249059" xlink:href="#mb5e071c378" y="440.366136"/>
     <use style="fill:#0000ff;stroke:#0000ff;stroke-width:4;" x="172.007215" xlink:href="#mb5e071c378" y="368.961178"/>
     <use style="fill:#0000ff;stroke:#0000ff;stroke-width:4;" x="175.76537" xlink:href="#mb5e071c378" y="368.961178"/>
     <use style="fill:#0000ff;stroke:#0000ff;stroke-width:4;" x="179.523526" xlink:href="#mb5e071c378" y="404.663657"/>
     <use style="fill:#0000ff;stroke:#0000ff;stroke-width:4;" x="183.281682" xlink:href="#mb5e071c378" y="440.366136"/>
     <use style="fill:#0000ff;stroke:#0000ff;stroke-width:4;" x="187.039837" xlink:href="#mb5e071c378" y="404.663657"/>
     <use style="fill:#0000ff;stroke:#0000ff;stroke-width:4;" x="190.797993" xlink:href="#mb5e071c378" y="440.366136"/>
     <use style="fill:#0000ff;stroke:#0000ff;stroke-width:4;" x="194.556149" xlink:href="#mb5e071c378" y="440.366136"/>
     <use style="fill:#0000ff;stroke:#0000ff;stroke-width:4;" x="198.314305" xlink:href="#mb5e071c378" y="440.366136"/>
     <use style="fill:#0000ff;stroke:#0000ff;stroke-width:4;" x="202.07246" xlink:href="#mb5e071c378" y="440.366136"/>
     <use style="fill:#0000ff;stroke:#0000ff;stroke-width:4;" x="205.830616" xlink:href="#mb5e071c378" y="440.366136"/>
     <use style="fill:#0000ff;stroke:#0000ff;stroke-width:4;" x="209.588772" xlink:href="#mb5e071c378" y="440.366136"/>
     <use style="fill:#0000ff;stroke:#0000ff;stroke-width:4;" x="213.346927" xlink:href="#mb5e071c378" y="440.366136"/>
     <use style="fill:#0000ff;stroke:#0000ff;stroke-width:4;" x="217.105083" xlink:href="#mb5e071c378" y="404.663657"/>
     <use style="fill:#0000ff;stroke:#0000ff;stroke-width:4;" x="220.863239" xlink:href="#mb5e071c378" y="440.366136"/>
     <use style="fill:#0000ff;stroke:#0000ff;stroke-width:4;" x="224.621395" xlink:href="#mb5e071c378" y="440.366136"/>
     <use style="fill:#0000ff;stroke:#0000ff;stroke-width:4;" x="228.37955" xlink:href="#mb5e071c378" y="440.366136"/>
     <use style="fill:#0000ff;stroke:#0000ff;stroke-width:4;" x="232.137706" xlink:href="#mb5e071c378" y="440.366136"/>
     <use style="fill:#0000ff;stroke:#0000ff;stroke-width:4;" x="235.895862" xlink:href="#mb5e071c378" y="440.366136"/>
     <use style="fill:#0000ff;stroke:#0000ff;stroke-width:4;" x="239.654018" xlink:href="#mb5e071c378" y="404.663657"/>
     <use style="fill:#0000ff;stroke:#0000ff;stroke-width:4;" x="243.412173" xlink:href="#mb5e071c378" y="440.366136"/>
     <use style="fill:#0000ff;stroke:#0000ff;stroke-width:4;" x="247.170329" xlink:href="#mb5e071c378" y="440.366136"/>
     <use style="fill:#0000ff;stroke:#0000ff;stroke-width:4;" x="250.928485" xlink:href="#mb5e071c378" y="440.366136"/>
     <use style="fill:#0000ff;stroke:#0000ff;stroke-width:4;" x="254.68664" xlink:href="#mb5e071c378" y="440.366136"/>
     <use style="fill:#0000ff;stroke:#0000ff;stroke-width:4;" x="258.444796" xlink:href="#mb5e071c378" y="404.663657"/>
     <use style="fill:#0000ff;stroke:#0000ff;stroke-width:4;" x="262.202952" xlink:href="#mb5e071c378" y="440.366136"/>
     <use style="fill:#0000ff;stroke:#0000ff;stroke-width:4;" x="265.961108" xlink:href="#mb5e071c378" y="404.663657"/>
     <use style="fill:#0000ff;stroke:#0000ff;stroke-width:4;" x="269.719263" xlink:href="#mb5e071c378" y="404.663657"/>
     <use style="fill:#0000ff;stroke:#0000ff;stroke-width:4;" x="273.477419" xlink:href="#mb5e071c378" y="440.366136"/>
     <use style="fill:#0000ff;stroke:#0000ff;stroke-width:4;" x="277.235575" xlink:href="#mb5e071c378" y="440.366136"/>
     <use style="fill:#0000ff;stroke:#0000ff;stroke-width:4;" x="280.99373" xlink:href="#mb5e071c378" y="440.366136"/>
     <use style="fill:#0000ff;stroke:#0000ff;stroke-width:4;" x="284.751886" xlink:href="#mb5e071c378" y="404.663657"/>
     <use style="fill:#0000ff;stroke:#0000ff;stroke-width:4;" x="288.510042" xlink:href="#mb5e071c378" y="440.366136"/>
     <use style="fill:#0000ff;stroke:#0000ff;stroke-width:4;" x="292.268198" xlink:href="#mb5e071c378" y="404.663657"/>
     <use style="fill:#0000ff;stroke:#0000ff;stroke-width:4;" x="296.026353" xlink:href="#mb5e071c378" y="440.366136"/>
     <use style="fill:#0000ff;stroke:#0000ff;stroke-width:4;" x="299.784509" xlink:href="#mb5e071c378" y="368.961178"/>
     <use style="fill:#0000ff;stroke:#0000ff;stroke-width:4;" x="303.542665" xlink:href="#mb5e071c378" y="440.366136"/>
     <use style="fill:#0000ff;stroke:#0000ff;stroke-width:4;" x="307.30082" xlink:href="#mb5e071c378" y="368.961178"/>
     <use style="fill:#0000ff;stroke:#0000ff;stroke-width:4;" x="311.058976" xlink:href="#mb5e071c378" y="368.961178"/>
     <use style="fill:#0000ff;stroke:#0000ff;stroke-width:4;" x="314.817132" xlink:href="#mb5e071c378" y="261.85374"/>
     <use style="fill:#0000ff;stroke:#0000ff;stroke-width:4;" x="318.575288" xlink:href="#mb5e071c378" y="440.366136"/>
     <use style="fill:#0000ff;stroke:#0000ff;stroke-width:4;" x="322.333443" xlink:href="#mb5e071c378" y="404.663657"/>
     <use style="fill:#0000ff;stroke:#0000ff;stroke-width:4;" x="326.091599" xlink:href="#mb5e071c378" y="440.366136"/>
     <use style="fill:#0000ff;stroke:#0000ff;stroke-width:4;" x="329.849755" xlink:href="#mb5e071c378" y="404.663657"/>
     <use style="fill:#0000ff;stroke:#0000ff;stroke-width:4;" x="333.607911" xlink:href="#mb5e071c378" y="333.258698"/>
     <use style="fill:#0000ff;stroke:#0000ff;stroke-width:4;" x="337.366066" xlink:href="#mb5e071c378" y="368.961178"/>
     <use style="fill:#0000ff;stroke:#0000ff;stroke-width:4;" x="341.124222" xlink:href="#mb5e071c378" y="333.258698"/>
     <use style="fill:#0000ff;stroke:#0000ff;stroke-width:4;" x="344.882378" xlink:href="#mb5e071c378" y="368.961178"/>
     <use style="fill:#0000ff;stroke:#0000ff;stroke-width:4;" x="348.640533" xlink:href="#mb5e071c378" y="297.556219"/>
     <use style="fill:#0000ff;stroke:#0000ff;stroke-width:4;" x="352.398689" xlink:href="#mb5e071c378" y="297.556219"/>
     <use style="fill:#0000ff;stroke:#0000ff;stroke-width:4;" x="356.156845" xlink:href="#mb5e071c378" y="261.85374"/>
     <use style="fill:#0000ff;stroke:#0000ff;stroke-width:4;" x="359.915001" xlink:href="#mb5e071c378" y="333.258698"/>
     <use style="fill:#0000ff;stroke:#0000ff;stroke-width:4;" x="363.673156" xlink:href="#mb5e071c378" y="297.556219"/>
     <use style="fill:#0000ff;stroke:#0000ff;stroke-width:4;" x="367.431312" xlink:href="#mb5e071c378" y="190.448781"/>
     <use style="fill:#0000ff;stroke:#0000ff;stroke-width:4;" x="371.189468" xlink:href="#mb5e071c378" y="119.043822"/>
     <use style="fill:#0000ff;stroke:#0000ff;stroke-width:4;" x="374.947623" xlink:href="#mb5e071c378" y="297.556219"/>
     <use style="fill:#0000ff;stroke:#0000ff;stroke-width:4;" x="378.705779" xlink:href="#mb5e071c378" y="404.663657"/>
     <use style="fill:#0000ff;stroke:#0000ff;stroke-width:4;" x="382.463935" xlink:href="#mb5e071c378" y="404.663657"/>
     <use style="fill:#0000ff;stroke:#0000ff;stroke-width:4;" x="386.222091" xlink:href="#mb5e071c378" y="440.366136"/>
     <use style="fill:#0000ff;stroke:#0000ff;stroke-width:4;" x="389.980246" xlink:href="#mb5e071c378" y="261.85374"/>
     <use style="fill:#0000ff;stroke:#0000ff;stroke-width:4;" x="393.738402" xlink:href="#mb5e071c378" y="368.961178"/>
     <use style="fill:#0000ff;stroke:#0000ff;stroke-width:4;" x="397.496558" xlink:href="#mb5e071c378" y="297.556219"/>
     <use style="fill:#0000ff;stroke:#0000ff;stroke-width:4;" x="401.254713" xlink:href="#mb5e071c378" y="190.448781"/>
     <use style="fill:#0000ff;stroke:#0000ff;stroke-width:4;" x="405.012869" xlink:href="#mb5e071c378" y="226.15126"/>
     <use style="fill:#0000ff;stroke:#0000ff;stroke-width:4;" x="408.771025" xlink:href="#mb5e071c378" y="297.556219"/>
     <use style="fill:#0000ff;stroke:#0000ff;stroke-width:4;" x="412.529181" xlink:href="#mb5e071c378" y="297.556219"/>
     <use style="fill:#0000ff;stroke:#0000ff;stroke-width:4;" x="416.287336" xlink:href="#mb5e071c378" y="190.448781"/>
     <use style="fill:#0000ff;stroke:#0000ff;stroke-width:4;" x="420.045492" xlink:href="#mb5e071c378" y="261.85374"/>
     <use style="fill:#0000ff;stroke:#0000ff;stroke-width:4;" x="423.803648" xlink:href="#mb5e071c378" y="261.85374"/>
     <use style="fill:#0000ff;stroke:#0000ff;stroke-width:4;" x="427.561804" xlink:href="#mb5e071c378" y="333.258698"/>
     <use style="fill:#0000ff;stroke:#0000ff;stroke-width:4;" x="431.319959" xlink:href="#mb5e071c378" y="297.556219"/>
     <use style="fill:#0000ff;stroke:#0000ff;stroke-width:4;" x="435.078115" xlink:href="#mb5e071c378" y="154.746302"/>
     <use style="fill:#0000ff;stroke:#0000ff;stroke-width:4;" x="438.836271" xlink:href="#mb5e071c378" y="297.556219"/>
     <use style="fill:#0000ff;stroke:#0000ff;stroke-width:4;" x="442.594426" xlink:href="#mb5e071c378" y="226.15126"/>
     <use style="fill:#0000ff;stroke:#0000ff;stroke-width:4;" x="446.352582" xlink:href="#mb5e071c378" y="333.258698"/>
     <use style="fill:#0000ff;stroke:#0000ff;stroke-width:4;" x="450.110738" xlink:href="#mb5e071c378" y="261.85374"/>
     <use style="fill:#0000ff;stroke:#0000ff;stroke-width:4;" x="453.868894" xlink:href="#mb5e071c378" y="333.258698"/>
     <use style="fill:#0000ff;stroke:#0000ff;stroke-width:4;" x="457.627049" xlink:href="#mb5e071c378" y="368.961178"/>
     <use style="fill:#0000ff;stroke:#0000ff;stroke-width:4;" x="461.385205" xlink:href="#mb5e071c378" y="368.961178"/>
     <use style="fill:#0000ff;stroke:#0000ff;stroke-width:4;" x="465.143361" xlink:href="#mb5e071c378" y="297.556219"/>
     <use style="fill:#0000ff;stroke:#0000ff;stroke-width:4;" x="468.901516" xlink:href="#mb5e071c378" y="368.961178"/>
     <use style="fill:#0000ff;stroke:#0000ff;stroke-width:4;" x="472.659672" xlink:href="#mb5e071c378" y="190.448781"/>
     <use style="fill:#0000ff;stroke:#0000ff;stroke-width:4;" x="476.417828" xlink:href="#mb5e071c378" y="297.556219"/>
     <use style="fill:#0000ff;stroke:#0000ff;stroke-width:4;" x="480.175984" xlink:href="#mb5e071c378" y="333.258698"/>
     <use style="fill:#0000ff;stroke:#0000ff;stroke-width:4;" x="483.934139" xlink:href="#mb5e071c378" y="261.85374"/>
     <use style="fill:#0000ff;stroke:#0000ff;stroke-width:4;" x="487.692295" xlink:href="#mb5e071c378" y="83.341343"/>
     <use style="fill:#0000ff;stroke:#0000ff;stroke-width:4;" x="491.450451" xlink:href="#mb5e071c378" y="440.366136"/>
     <use style="fill:#0000ff;stroke:#0000ff;stroke-width:4;" x="495.208606" xlink:href="#mb5e071c378" y="368.961178"/>
     <use style="fill:#0000ff;stroke:#0000ff;stroke-width:4;" x="498.966762" xlink:href="#mb5e071c378" y="190.448781"/>
     <use style="fill:#0000ff;stroke:#0000ff;stroke-width:4;" x="502.724918" xlink:href="#mb5e071c378" y="368.961178"/>
     <use style="fill:#0000ff;stroke:#0000ff;stroke-width:4;" x="506.483074" xlink:href="#mb5e071c378" y="297.556219"/>
     <use style="fill:#0000ff;stroke:#0000ff;stroke-width:4;" x="510.241229" xlink:href="#mb5e071c378" y="368.961178"/>
     <use style="fill:#0000ff;stroke:#0000ff;stroke-width:4;" x="513.999385" xlink:href="#mb5e071c378" y="226.15126"/>
     <use style="fill:#0000ff;stroke:#0000ff;stroke-width:4;" x="517.757541" xlink:href="#mb5e071c378" y="333.258698"/>
     <use style="fill:#0000ff;stroke:#0000ff;stroke-width:4;" x="521.515696" xlink:href="#mb5e071c378" y="119.043822"/>
     <use style="fill:#0000ff;stroke:#0000ff;stroke-width:4;" x="525.273852" xlink:href="#mb5e071c378" y="297.556219"/>
     <use style="fill:#0000ff;stroke:#0000ff;stroke-width:4;" x="529.032008" xlink:href="#mb5e071c378" y="333.258698"/>
     <use style="fill:#0000ff;stroke:#0000ff;stroke-width:4;" x="532.790164" xlink:href="#mb5e071c378" y="333.258698"/>
     <use style="fill:#0000ff;stroke:#0000ff;stroke-width:4;" x="536.548319" xlink:href="#mb5e071c378" y="333.258698"/>
     <use style="fill:#0000ff;stroke:#0000ff;stroke-width:4;" x="540.306475" xlink:href="#mb5e071c378" y="261.85374"/>
     <use style="fill:#0000ff;stroke:#0000ff;stroke-width:4;" x="544.064631" xlink:href="#mb5e071c378" y="83.341343"/>
     <use style="fill:#0000ff;stroke:#0000ff;stroke-width:4;" x="547.822787" xlink:href="#mb5e071c378" y="333.258698"/>
     <use style="fill:#0000ff;stroke:#0000ff;stroke-width:4;" x="551.580942" xlink:href="#mb5e071c378" y="261.85374"/>
     <use style="fill:#0000ff;stroke:#0000ff;stroke-width:4;" x="555.339098" xlink:href="#mb5e071c378" y="333.258698"/>
     <use style="fill:#0000ff;stroke:#0000ff;stroke-width:4;" x="559.097254" xlink:href="#mb5e071c378" y="368.961178"/>
     <use style="fill:#0000ff;stroke:#0000ff;stroke-width:4;" x="562.855409" xlink:href="#mb5e071c378" y="297.556219"/>
     <use style="fill:#0000ff;stroke:#0000ff;stroke-width:4;" x="566.613565" xlink:href="#mb5e071c378" y="226.15126"/>
     <use style="fill:#0000ff;stroke:#0000ff;stroke-width:4;" x="570.371721" xlink:href="#mb5e071c378" y="297.556219"/>
     <use style="fill:#0000ff;stroke:#0000ff;stroke-width:4;" x="574.129877" xlink:href="#mb5e071c378" y="297.556219"/>
     <use style="fill:#0000ff;stroke:#0000ff;stroke-width:4;" x="577.888032" xlink:href="#mb5e071c378" y="368.961178"/>
     <use style="fill:#0000ff;stroke:#0000ff;stroke-width:4;" x="581.646188" xlink:href="#mb5e071c378" y="297.556219"/>
     <use style="fill:#0000ff;stroke:#0000ff;stroke-width:4;" x="585.404344" xlink:href="#mb5e071c378" y="119.043822"/>
     <use style="fill:#0000ff;stroke:#0000ff;stroke-width:4;" x="589.162499" xlink:href="#mb5e071c378" y="226.15126"/>
     <use style="fill:#0000ff;stroke:#0000ff;stroke-width:4;" x="592.920655" xlink:href="#mb5e071c378" y="261.85374"/>
     <use style="fill:#0000ff;stroke:#0000ff;stroke-width:4;" x="596.678811" xlink:href="#mb5e071c378" y="333.258698"/>
     <use style="fill:#0000ff;stroke:#0000ff;stroke-width:4;" x="600.436967" xlink:href="#mb5e071c378" y="190.448781"/>
     <use style="fill:#0000ff;stroke:#0000ff;stroke-width:4;" x="604.195122" xlink:href="#mb5e071c378" y="83.341343"/>
     <use style="fill:#0000ff;stroke:#0000ff;stroke-width:4;" x="607.953278" xlink:href="#mb5e071c378" y="83.341343"/>
     <use style="fill:#0000ff;stroke:#0000ff;stroke-width:4;" x="611.711434" xlink:href="#mb5e071c378" y="297.556219"/>
     <use style="fill:#0000ff;stroke:#0000ff;stroke-width:4;" x="615.469589" xlink:href="#mb5e071c378" y="333.258698"/>
     <use style="fill:#0000ff;stroke:#0000ff;stroke-width:4;" x="619.227745" xlink:href="#mb5e071c378" y="190.448781"/>
     <use style="fill:#0000ff;stroke:#0000ff;stroke-width:4;" x="622.985901" xlink:href="#mb5e071c378" y="368.961178"/>
     <use style="fill:#0000ff;stroke:#0000ff;stroke-width:4;" x="626.744057" xlink:href="#mb5e071c378" y="226.15126"/>
     <use style="fill:#0000ff;stroke:#0000ff;stroke-width:4;" x="630.502212" xlink:href="#mb5e071c378" y="226.15126"/>
     <use style="fill:#0000ff;stroke:#0000ff;stroke-width:4;" x="634.260368" xlink:href="#mb5e071c378" y="190.448781"/>
     <use style="fill:#0000ff;stroke:#0000ff;stroke-width:4;" x="638.018524" xlink:href="#mb5e071c378" y="83.341343"/>
     <use style="fill:#0000ff;stroke:#0000ff;stroke-width:4;" x="641.77668" xlink:href="#mb5e071c378" y="261.85374"/>
     <use style="fill:#0000ff;stroke:#0000ff;stroke-width:4;" x="645.534835" xlink:href="#mb5e071c378" y="226.15126"/>
     <use style="fill:#0000ff;stroke:#0000ff;stroke-width:4;" x="649.292991" xlink:href="#mb5e071c378" y="190.448781"/>
     <use style="fill:#0000ff;stroke:#0000ff;stroke-width:4;" x="653.051147" xlink:href="#mb5e071c378" y="226.15126"/>
     <use style="fill:#0000ff;stroke:#0000ff;stroke-width:4;" x="656.809302" xlink:href="#mb5e071c378" y="226.15126"/>
     <use style="fill:#0000ff;stroke:#0000ff;stroke-width:4;" x="660.567458" xlink:href="#mb5e071c378" y="119.043822"/>
     <use style="fill:#0000ff;stroke:#0000ff;stroke-width:4;" x="664.325614" xlink:href="#mb5e071c378" y="47.638864"/>
     <use style="fill:#0000ff;stroke:#0000ff;stroke-width:4;" x="668.08377" xlink:href="#mb5e071c378" y="154.746302"/>
     <use style="fill:#0000ff;stroke:#0000ff;stroke-width:4;" x="671.841925" xlink:href="#mb5e071c378" y="333.258698"/>
     <use style="fill:#0000ff;stroke:#0000ff;stroke-width:4;" x="675.600081" xlink:href="#mb5e071c378" y="190.448781"/>
     <use style="fill:#0000ff;stroke:#0000ff;stroke-width:4;" x="679.358237" xlink:href="#mb5e071c378" y="154.746302"/>
     <use style="fill:#0000ff;stroke:#0000ff;stroke-width:4;" x="683.116392" xlink:href="#mb5e071c378" y="261.85374"/>
     <use style="fill:#0000ff;stroke:#0000ff;stroke-width:4;" x="686.874548" xlink:href="#mb5e071c378" y="226.15126"/>
     <use style="fill:#0000ff;stroke:#0000ff;stroke-width:4;" x="690.632704" xlink:href="#mb5e071c378" y="119.043822"/>
     <use style="fill:#0000ff;stroke:#0000ff;stroke-width:4;" x="694.39086" xlink:href="#mb5e071c378" y="297.556219"/>
     <use style="fill:#0000ff;stroke:#0000ff;stroke-width:4;" x="698.149015" xlink:href="#mb5e071c378" y="297.556219"/>
     <use style="fill:#0000ff;stroke:#0000ff;stroke-width:4;" x="701.907171" xlink:href="#mb5e071c378" y="154.746302"/>
     <use style="fill:#0000ff;stroke:#0000ff;stroke-width:4;" x="705.665327" xlink:href="#mb5e071c378" y="261.85374"/>
     <use style="fill:#0000ff;stroke:#0000ff;stroke-width:4;" x="709.423482" xlink:href="#mb5e071c378" y="226.15126"/>
     <use style="fill:#0000ff;stroke:#0000ff;stroke-width:4;" x="713.181638" xlink:href="#mb5e071c378" y="333.258698"/>
     <use style="fill:#0000ff;stroke:#0000ff;stroke-width:4;" x="716.939794" xlink:href="#mb5e071c378" y="368.961178"/>
     <use style="fill:#0000ff;stroke:#0000ff;stroke-width:4;" x="720.69795" xlink:href="#mb5e071c378" y="226.15126"/>
     <use style="fill:#0000ff;stroke:#0000ff;stroke-width:4;" x="724.456105" xlink:href="#mb5e071c378" y="190.448781"/>
     <use style="fill:#0000ff;stroke:#0000ff;stroke-width:4;" x="728.214261" xlink:href="#mb5e071c378" y="190.448781"/>
     <use style="fill:#0000ff;stroke:#0000ff;stroke-width:4;" x="731.972417" xlink:href="#mb5e071c378" y="226.15126"/>
     <use style="fill:#0000ff;stroke:#0000ff;stroke-width:4;" x="735.730573" xlink:href="#mb5e071c378" y="297.556219"/>
     <use style="fill:#0000ff;stroke:#0000ff;stroke-width:4;" x="739.488728" xlink:href="#mb5e071c378" y="119.043822"/>
     <use style="fill:#0000ff;stroke:#0000ff;stroke-width:4;" x="743.246884" xlink:href="#mb5e071c378" y="119.043822"/>
     <use style="fill:#0000ff;stroke:#0000ff;stroke-width:4;" x="747.00504" xlink:href="#mb5e071c378" y="297.556219"/>
     <use style="fill:#0000ff;stroke:#0000ff;stroke-width:4;" x="750.763195" xlink:href="#mb5e071c378" y="226.15126"/>
     <use style="fill:#0000ff;stroke:#0000ff;stroke-width:4;" x="754.521351" xlink:href="#mb5e071c378" y="261.85374"/>
     <use style="fill:#0000ff;stroke:#0000ff;stroke-width:4;" x="758.279507" xlink:href="#mb5e071c378" y="404.663657"/>
     <use style="fill:#0000ff;stroke:#0000ff;stroke-width:4;" x="762.037663" xlink:href="#mb5e071c378" y="261.85374"/>
     <use style="fill:#0000ff;stroke:#0000ff;stroke-width:4;" x="765.795818" xlink:href="#mb5e071c378" y="333.258698"/>
     <use style="fill:#0000ff;stroke:#0000ff;stroke-width:4;" x="769.553974" xlink:href="#mb5e071c378" y="261.85374"/>
     <use style="fill:#0000ff;stroke:#0000ff;stroke-width:4;" x="773.31213" xlink:href="#mb5e071c378" y="368.961178"/>
     <use style="fill:#0000ff;stroke:#0000ff;stroke-width:4;" x="777.070285" xlink:href="#mb5e071c378" y="297.556219"/>
     <use style="fill:#0000ff;stroke:#0000ff;stroke-width:4;" x="780.828441" xlink:href="#mb5e071c378" y="226.15126"/>
     <use style="fill:#0000ff;stroke:#0000ff;stroke-width:4;" x="784.586597" xlink:href="#mb5e071c378" y="226.15126"/>
     <use style="fill:#0000ff;stroke:#0000ff;stroke-width:4;" x="788.344753" xlink:href="#mb5e071c378" y="226.15126"/>
     <use style="fill:#0000ff;stroke:#0000ff;stroke-width:4;" x="792.102908" xlink:href="#mb5e071c378" y="226.15126"/>
     <use style="fill:#0000ff;stroke:#0000ff;stroke-width:4;" x="795.861064" xlink:href="#mb5e071c378" y="333.258698"/>
     <use style="fill:#0000ff;stroke:#0000ff;stroke-width:4;" x="799.61922" xlink:href="#mb5e071c378" y="297.556219"/>
     <use style="fill:#0000ff;stroke:#0000ff;stroke-width:4;" x="803.377375" xlink:href="#mb5e071c378" y="297.556219"/>
     <use style="fill:#0000ff;stroke:#0000ff;stroke-width:4;" x="807.135531" xlink:href="#mb5e071c378" y="119.043822"/>
     <use style="fill:#0000ff;stroke:#0000ff;stroke-width:4;" x="810.893687" xlink:href="#mb5e071c378" y="297.556219"/>
     <use style="fill:#0000ff;stroke:#0000ff;stroke-width:4;" x="814.651843" xlink:href="#mb5e071c378" y="333.258698"/>
     <use style="fill:#0000ff;stroke:#0000ff;stroke-width:4;" x="818.409998" xlink:href="#mb5e071c378" y="190.448781"/>
     <use style="fill:#0000ff;stroke:#0000ff;stroke-width:4;" x="822.168154" xlink:href="#mb5e071c378" y="333.258698"/>
     <use style="fill:#0000ff;stroke:#0000ff;stroke-width:4;" x="825.92631" xlink:href="#mb5e071c378" y="333.258698"/>
     <use style="fill:#0000ff;stroke:#0000ff;stroke-width:4;" x="829.684466" xlink:href="#mb5e071c378" y="404.663657"/>
     <use style="fill:#0000ff;stroke:#0000ff;stroke-width:4;" x="833.442621" xlink:href="#mb5e071c378" y="333.258698"/>
     <use style="fill:#0000ff;stroke:#0000ff;stroke-width:4;" x="837.200777" xlink:href="#mb5e071c378" y="297.556219"/>
     <use style="fill:#0000ff;stroke:#0000ff;stroke-width:4;" x="840.958933" xlink:href="#mb5e071c378" y="297.556219"/>
     <use style="fill:#0000ff;stroke:#0000ff;stroke-width:4;" x="844.717088" xlink:href="#mb5e071c378" y="368.961178"/>
     <use style="fill:#0000ff;stroke:#0000ff;stroke-width:4;" x="848.475244" xlink:href="#mb5e071c378" y="368.961178"/>
     <use style="fill:#0000ff;stroke:#0000ff;stroke-width:4;" x="852.2334" xlink:href="#mb5e071c378" y="261.85374"/>
     <use style="fill:#0000ff;stroke:#0000ff;stroke-width:4;" x="855.991556" xlink:href="#mb5e071c378" y="333.258698"/>
     <use style="fill:#0000ff;stroke:#0000ff;stroke-width:4;" x="859.749711" xlink:href="#mb5e071c378" y="261.85374"/>
     <use style="fill:#0000ff;stroke:#0000ff;stroke-width:4;" x="863.507867" xlink:href="#mb5e071c378" y="333.258698"/>
     <use style="fill:#0000ff;stroke:#0000ff;stroke-width:4;" x="867.266023" xlink:href="#mb5e071c378" y="297.556219"/>
    </g>
   </g>
   <g id="patch_3">
    <path d="M 42.53875 460.0025 
L 42.53875 28.0025 
" style="fill:none;stroke:#000000;stroke-linecap:square;stroke-linejoin:miter;stroke-width:0.8;"/>
   </g>
   <g id="patch_4">
    <path d="M 906.53875 460.0025 
L 906.53875 28.0025 
" style="fill:none;stroke:#000000;stroke-linecap:square;stroke-linejoin:miter;stroke-width:0.8;"/>
   </g>
   <g id="patch_5">
    <path d="M 42.53875 460.0025 
L 906.53875 460.0025 
" style="fill:none;stroke:#000000;stroke-linecap:square;stroke-linejoin:miter;stroke-width:0.8;"/>
   </g>
   <g id="patch_6">
    <path d="M 42.53875 28.0025 
L 906.53875 28.0025 
" style="fill:none;stroke:#000000;stroke-linecap:square;stroke-linejoin:miter;stroke-width:0.8;"/>
   </g>
   <g id="text_31">
    <!-- Óbitos por dia em Uberlândia-MG -->
    <g transform="translate(324.105 22.0025)scale(0.16 -0.16)">
     <defs>
      <path d="M 42.484375 60.59375 
Q 33.890625 60.59375 29.15625 54.25 
Q 24.421875 47.90625 24.421875 36.375 
Q 24.421875 24.90625 29.15625 18.546875 
Q 33.890625 12.203125 42.484375 12.203125 
Q 51.125 12.203125 55.859375 18.546875 
Q 60.59375 24.90625 60.59375 36.375 
Q 60.59375 47.90625 55.859375 54.25 
Q 51.125 60.59375 42.484375 60.59375 
z
M 42.484375 74.21875 
Q 60.0625 74.21875 70.015625 64.15625 
Q 79.984375 54.109375 79.984375 36.375 
Q 79.984375 18.703125 70.015625 8.640625 
Q 60.0625 -1.421875 42.484375 -1.421875 
Q 24.953125 -1.421875 14.96875 8.640625 
Q 4.984375 18.703125 4.984375 36.375 
Q 4.984375 54.109375 14.96875 64.15625 
Q 24.953125 74.21875 42.484375 74.21875 
z
M 43.734375 92.515625 
L 57.5625 92.515625 
L 43.640625 79.625 
L 34.078125 79.625 
z
" id="DejaVuSans-Bold-211"/>
      <path d="M 37.5 11.28125 
Q 43.109375 11.28125 46.0625 15.375 
Q 49.03125 19.484375 49.03125 27.296875 
Q 49.03125 35.109375 46.0625 39.203125 
Q 43.109375 43.3125 37.5 43.3125 
Q 31.890625 43.3125 28.875 39.1875 
Q 25.875 35.0625 25.875 27.296875 
Q 25.875 19.53125 28.875 15.40625 
Q 31.890625 11.28125 37.5 11.28125 
z
M 25.875 46.6875 
Q 29.5 51.46875 33.890625 53.734375 
Q 38.28125 56 44 56 
Q 54.109375 56 60.59375 47.96875 
Q 67.09375 39.9375 67.09375 27.296875 
Q 67.09375 14.65625 60.59375 6.609375 
Q 54.109375 -1.421875 44 -1.421875 
Q 38.28125 -1.421875 33.890625 0.84375 
Q 29.5 3.125 25.875 7.90625 
L 25.875 0 
L 8.40625 0 
L 8.40625 75.984375 
L 25.875 75.984375 
z
" id="DejaVuSans-Bold-98"/>
      <path d="M 8.40625 54.6875 
L 25.875 54.6875 
L 25.875 0 
L 8.40625 0 
z
M 8.40625 75.984375 
L 25.875 75.984375 
L 25.875 61.71875 
L 8.40625 61.71875 
z
" id="DejaVuSans-Bold-105"/>
      <path d="M 27.484375 70.21875 
L 27.484375 54.6875 
L 45.515625 54.6875 
L 45.515625 42.1875 
L 27.484375 42.1875 
L 27.484375 19 
Q 27.484375 15.1875 29 13.84375 
Q 30.515625 12.5 35.015625 12.5 
L 44 12.5 
L 44 0 
L 29 0 
Q 18.65625 0 14.328125 4.3125 
Q 10.015625 8.640625 10.015625 19 
L 10.015625 42.1875 
L 1.3125 42.1875 
L 1.3125 54.6875 
L 10.015625 54.6875 
L 10.015625 70.21875 
z
" id="DejaVuSans-Bold-116"/>
      <path d="M 34.421875 43.5 
Q 28.609375 43.5 25.5625 39.328125 
Q 22.515625 35.15625 22.515625 27.296875 
Q 22.515625 19.4375 25.5625 15.25 
Q 28.609375 11.078125 34.421875 11.078125 
Q 40.140625 11.078125 43.15625 15.25 
Q 46.1875 19.4375 46.1875 27.296875 
Q 46.1875 35.15625 43.15625 39.328125 
Q 40.140625 43.5 34.421875 43.5 
z
M 34.421875 56 
Q 48.53125 56 56.46875 48.375 
Q 64.40625 40.765625 64.40625 27.296875 
Q 64.40625 13.8125 56.46875 6.1875 
Q 48.53125 -1.421875 34.421875 -1.421875 
Q 20.265625 -1.421875 12.28125 6.1875 
Q 4.296875 13.8125 4.296875 27.296875 
Q 4.296875 40.765625 12.28125 48.375 
Q 20.265625 56 34.421875 56 
z
" id="DejaVuSans-Bold-111"/>
      <path d="M 51.125 52.984375 
L 51.125 39.703125 
Q 45.515625 42.046875 40.28125 43.21875 
Q 35.0625 44.390625 30.421875 44.390625 
Q 25.4375 44.390625 23.015625 43.140625 
Q 20.609375 41.890625 20.609375 39.3125 
Q 20.609375 37.203125 22.4375 36.078125 
Q 24.265625 34.96875 29 34.421875 
L 32.078125 33.984375 
Q 45.515625 32.28125 50.140625 28.375 
Q 54.78125 24.46875 54.78125 16.109375 
Q 54.78125 7.375 48.328125 2.96875 
Q 41.890625 -1.421875 29.109375 -1.421875 
Q 23.6875 -1.421875 17.890625 -0.5625 
Q 12.109375 0.296875 6 2 
L 6 15.28125 
Q 11.234375 12.75 16.71875 11.46875 
Q 22.21875 10.203125 27.875 10.203125 
Q 33.015625 10.203125 35.59375 11.609375 
Q 38.1875 13.03125 38.1875 15.828125 
Q 38.1875 18.171875 36.40625 19.3125 
Q 34.625 20.453125 29.296875 21.09375 
L 26.21875 21.484375 
Q 14.546875 22.953125 9.859375 26.90625 
Q 5.171875 30.859375 5.171875 38.921875 
Q 5.171875 47.609375 11.125 51.796875 
Q 17.09375 56 29.390625 56 
Q 34.234375 56 39.546875 55.265625 
Q 44.875 54.546875 51.125 52.984375 
z
" id="DejaVuSans-Bold-115"/>
      <path id="DejaVuSans-Bold-32"/>
      <path d="M 25.875 7.90625 
L 25.875 -20.796875 
L 8.40625 -20.796875 
L 8.40625 54.6875 
L 25.875 54.6875 
L 25.875 46.6875 
Q 29.5 51.46875 33.890625 53.734375 
Q 38.28125 56 44 56 
Q 54.109375 56 60.59375 47.96875 
Q 67.09375 39.9375 67.09375 27.296875 
Q 67.09375 14.65625 60.59375 6.609375 
Q 54.109375 -1.421875 44 -1.421875 
Q 38.28125 -1.421875 33.890625 0.84375 
Q 29.5 3.125 25.875 7.90625 
z
M 37.5 43.3125 
Q 31.890625 43.3125 28.875 39.1875 
Q 25.875 35.0625 25.875 27.296875 
Q 25.875 19.53125 28.875 15.40625 
Q 31.890625 11.28125 37.5 11.28125 
Q 43.109375 11.28125 46.0625 15.375 
Q 49.03125 19.484375 49.03125 27.296875 
Q 49.03125 35.109375 46.0625 39.203125 
Q 43.109375 43.3125 37.5 43.3125 
z
" id="DejaVuSans-Bold-112"/>
      <path d="M 49.03125 39.796875 
Q 46.734375 40.875 44.453125 41.375 
Q 42.1875 41.890625 39.890625 41.890625 
Q 33.15625 41.890625 29.515625 37.5625 
Q 25.875 33.25 25.875 25.203125 
L 25.875 0 
L 8.40625 0 
L 8.40625 54.6875 
L 25.875 54.6875 
L 25.875 45.703125 
Q 29.25 51.078125 33.609375 53.53125 
Q 37.984375 56 44.09375 56 
Q 44.96875 56 45.984375 55.921875 
Q 47.015625 55.859375 48.96875 55.609375 
z
" id="DejaVuSans-Bold-114"/>
      <path d="M 45.609375 46.6875 
L 45.609375 75.984375 
L 63.1875 75.984375 
L 63.1875 0 
L 45.609375 0 
L 45.609375 7.90625 
Q 42 3.078125 37.640625 0.828125 
Q 33.296875 -1.421875 27.59375 -1.421875 
Q 17.484375 -1.421875 10.984375 6.609375 
Q 4.5 14.65625 4.5 27.296875 
Q 4.5 39.9375 10.984375 47.96875 
Q 17.484375 56 27.59375 56 
Q 33.25 56 37.625 53.734375 
Q 42 51.46875 45.609375 46.6875 
z
M 34.078125 11.28125 
Q 39.703125 11.28125 42.65625 15.375 
Q 45.609375 19.484375 45.609375 27.296875 
Q 45.609375 35.109375 42.65625 39.203125 
Q 39.703125 43.3125 34.078125 43.3125 
Q 28.515625 43.3125 25.5625 39.203125 
Q 22.609375 35.109375 22.609375 27.296875 
Q 22.609375 19.484375 25.5625 15.375 
Q 28.515625 11.28125 34.078125 11.28125 
z
" id="DejaVuSans-Bold-100"/>
      <path d="M 32.90625 24.609375 
Q 27.4375 24.609375 24.671875 22.75 
Q 21.921875 20.90625 21.921875 17.28125 
Q 21.921875 13.96875 24.140625 12.078125 
Q 26.375 10.203125 30.328125 10.203125 
Q 35.25 10.203125 38.625 13.734375 
Q 42 17.28125 42 22.609375 
L 42 24.609375 
z
M 59.625 31.203125 
L 59.625 0 
L 42 0 
L 42 8.109375 
Q 38.484375 3.125 34.078125 0.84375 
Q 29.6875 -1.421875 23.390625 -1.421875 
Q 14.890625 -1.421875 9.59375 3.53125 
Q 4.296875 8.5 4.296875 16.40625 
Q 4.296875 26.03125 10.90625 30.515625 
Q 17.53125 35.015625 31.6875 35.015625 
L 42 35.015625 
L 42 36.375 
Q 42 40.53125 38.71875 42.453125 
Q 35.453125 44.390625 28.515625 44.390625 
Q 22.90625 44.390625 18.0625 43.265625 
Q 13.234375 42.140625 9.078125 39.890625 
L 9.078125 53.21875 
Q 14.703125 54.59375 20.359375 55.296875 
Q 26.03125 56 31.6875 56 
Q 46.484375 56 53.046875 50.171875 
Q 59.625 44.34375 59.625 31.203125 
z
" id="DejaVuSans-Bold-97"/>
      <path d="M 62.984375 27.484375 
L 62.984375 22.515625 
L 22.125 22.515625 
Q 22.75 16.359375 26.5625 13.28125 
Q 30.375 10.203125 37.203125 10.203125 
Q 42.71875 10.203125 48.5 11.84375 
Q 54.296875 13.484375 60.40625 16.796875 
L 60.40625 3.328125 
Q 54.203125 0.984375 48 -0.21875 
Q 41.796875 -1.421875 35.59375 -1.421875 
Q 20.75 -1.421875 12.515625 6.125 
Q 4.296875 13.671875 4.296875 27.296875 
Q 4.296875 40.671875 12.375 48.328125 
Q 20.453125 56 34.625 56 
Q 47.515625 56 55.25 48.234375 
Q 62.984375 40.484375 62.984375 27.484375 
z
M 45.015625 33.296875 
Q 45.015625 38.28125 42.109375 41.328125 
Q 39.203125 44.390625 34.515625 44.390625 
Q 29.4375 44.390625 26.265625 41.53125 
Q 23.09375 38.671875 22.3125 33.296875 
z
" id="DejaVuSans-Bold-101"/>
      <path d="M 59.078125 45.609375 
Q 62.40625 50.6875 66.96875 53.34375 
Q 71.53125 56 77 56 
Q 86.421875 56 91.359375 50.1875 
Q 96.296875 44.390625 96.296875 33.296875 
L 96.296875 0 
L 78.71875 0 
L 78.71875 28.515625 
Q 78.765625 29.15625 78.78125 29.828125 
Q 78.8125 30.515625 78.8125 31.78125 
Q 78.8125 37.59375 77.09375 40.203125 
Q 75.390625 42.828125 71.578125 42.828125 
Q 66.609375 42.828125 63.890625 38.71875 
Q 61.1875 34.625 61.078125 26.859375 
L 61.078125 0 
L 43.5 0 
L 43.5 28.515625 
Q 43.5 37.59375 41.9375 40.203125 
Q 40.375 42.828125 36.375 42.828125 
Q 31.34375 42.828125 28.609375 38.703125 
Q 25.875 34.578125 25.875 26.90625 
L 25.875 0 
L 8.296875 0 
L 8.296875 54.6875 
L 25.875 54.6875 
L 25.875 46.6875 
Q 29.109375 51.3125 33.28125 53.65625 
Q 37.453125 56 42.484375 56 
Q 48.140625 56 52.484375 53.265625 
Q 56.84375 50.53125 59.078125 45.609375 
z
" id="DejaVuSans-Bold-109"/>
      <path d="M 9.1875 72.90625 
L 27.984375 72.90625 
L 27.984375 29.203125 
Q 27.984375 20.171875 30.9375 16.28125 
Q 33.890625 12.40625 40.578125 12.40625 
Q 47.3125 12.40625 50.265625 16.28125 
Q 53.21875 20.171875 53.21875 29.203125 
L 53.21875 72.90625 
L 72.015625 72.90625 
L 72.015625 29.203125 
Q 72.015625 13.71875 64.25 6.140625 
Q 56.5 -1.421875 40.578125 -1.421875 
Q 24.703125 -1.421875 16.9375 6.140625 
Q 9.1875 13.71875 9.1875 29.203125 
z
" id="DejaVuSans-Bold-85"/>
      <path d="M 8.40625 75.984375 
L 25.875 75.984375 
L 25.875 0 
L 8.40625 0 
z
" id="DejaVuSans-Bold-108"/>
      <path d="M 32.90625 24.609375 
Q 27.4375 24.609375 24.671875 22.75 
Q 21.921875 20.90625 21.921875 17.28125 
Q 21.921875 13.96875 24.140625 12.078125 
Q 26.375 10.203125 30.328125 10.203125 
Q 35.25 10.203125 38.625 13.734375 
Q 42 17.28125 42 22.609375 
L 42 24.609375 
z
M 59.625 31.203125 
L 59.625 0 
L 42 0 
L 42 8.109375 
Q 38.484375 3.125 34.078125 0.84375 
Q 29.6875 -1.421875 23.390625 -1.421875 
Q 14.890625 -1.421875 9.59375 3.53125 
Q 4.296875 8.5 4.296875 16.40625 
Q 4.296875 26.03125 10.90625 30.515625 
Q 17.53125 35.015625 31.6875 35.015625 
L 42 35.015625 
L 42 36.375 
Q 42 40.53125 38.71875 42.453125 
Q 35.453125 44.390625 28.515625 44.390625 
Q 22.90625 44.390625 18.0625 43.265625 
Q 13.234375 42.140625 9.078125 39.890625 
L 9.078125 53.21875 
Q 14.703125 54.59375 20.359375 55.296875 
Q 26.03125 56 31.6875 56 
Q 46.484375 56 53.046875 50.171875 
Q 59.625 44.34375 59.625 31.203125 
z
M 28.21875 79.984375 
L 40.03125 79.984375 
L 52.53125 61.625 
L 43.84375 61.625 
L 34.125 72.609375 
L 24.40625 61.625 
L 15.71875 61.625 
z
" id="DejaVuSans-Bold-226"/>
      <path d="M 63.375 33.296875 
L 63.375 0 
L 45.796875 0 
L 45.796875 5.421875 
L 45.796875 25.484375 
Q 45.796875 32.5625 45.484375 35.25 
Q 45.171875 37.9375 44.390625 39.203125 
Q 43.359375 40.921875 41.59375 41.875 
Q 39.84375 42.828125 37.59375 42.828125 
Q 32.125 42.828125 29 38.59375 
Q 25.875 34.375 25.875 26.90625 
L 25.875 0 
L 8.40625 0 
L 8.40625 54.6875 
L 25.875 54.6875 
L 25.875 46.6875 
Q 29.828125 51.46875 34.265625 53.734375 
Q 38.71875 56 44.09375 56 
Q 53.5625 56 58.46875 50.1875 
Q 63.375 44.390625 63.375 33.296875 
z
" id="DejaVuSans-Bold-110"/>
      <path d="M 5.421875 35.890625 
L 36.078125 35.890625 
L 36.078125 21.6875 
L 5.421875 21.6875 
z
" id="DejaVuSans-Bold-45"/>
      <path d="M 9.1875 72.90625 
L 33.109375 72.90625 
L 49.703125 33.890625 
L 66.40625 72.90625 
L 90.28125 72.90625 
L 90.28125 0 
L 72.515625 0 
L 72.515625 53.328125 
L 55.71875 14.015625 
L 43.796875 14.015625 
L 27 53.328125 
L 27 0 
L 9.1875 0 
z
" id="DejaVuSans-Bold-77"/>
      <path d="M 74.703125 5.421875 
Q 67.671875 2 60.109375 0.28125 
Q 52.546875 -1.421875 44.484375 -1.421875 
Q 26.265625 -1.421875 15.625 8.765625 
Q 4.984375 18.953125 4.984375 36.375 
Q 4.984375 54 15.8125 64.109375 
Q 26.65625 74.21875 45.515625 74.21875 
Q 52.78125 74.21875 59.4375 72.84375 
Q 66.109375 71.484375 72.015625 68.796875 
L 72.015625 53.71875 
Q 65.921875 57.171875 59.890625 58.875 
Q 53.859375 60.59375 47.796875 60.59375 
Q 36.578125 60.59375 30.5 54.3125 
Q 24.421875 48.046875 24.421875 36.375 
Q 24.421875 24.8125 30.28125 18.5 
Q 36.140625 12.203125 46.921875 12.203125 
Q 49.859375 12.203125 52.375 12.5625 
Q 54.890625 12.9375 56.890625 13.71875 
L 56.890625 27.875 
L 45.40625 27.875 
L 45.40625 40.484375 
L 74.703125 40.484375 
z
" id="DejaVuSans-Bold-71"/>
     </defs>
     <use xlink:href="#DejaVuSans-Bold-211"/>
     <use x="85.009766" xlink:href="#DejaVuSans-Bold-98"/>
     <use x="156.591797" xlink:href="#DejaVuSans-Bold-105"/>
     <use x="190.869141" xlink:href="#DejaVuSans-Bold-116"/>
     <use x="238.671875" xlink:href="#DejaVuSans-Bold-111"/>
     <use x="307.373047" xlink:href="#DejaVuSans-Bold-115"/>
     <use x="366.894531" xlink:href="#DejaVuSans-Bold-32"/>
     <use x="401.708984" xlink:href="#DejaVuSans-Bold-112"/>
     <use x="473.291016" xlink:href="#DejaVuSans-Bold-111"/>
     <use x="541.992188" xlink:href="#DejaVuSans-Bold-114"/>
     <use x="591.308594" xlink:href="#DejaVuSans-Bold-32"/>
     <use x="626.123047" xlink:href="#DejaVuSans-Bold-100"/>
     <use x="697.705078" xlink:href="#DejaVuSans-Bold-105"/>
     <use x="731.982422" xlink:href="#DejaVuSans-Bold-97"/>
     <use x="799.462891" xlink:href="#DejaVuSans-Bold-32"/>
     <use x="834.277344" xlink:href="#DejaVuSans-Bold-101"/>
     <use x="902.099609" xlink:href="#DejaVuSans-Bold-109"/>
     <use x="1006.298828" xlink:href="#DejaVuSans-Bold-32"/>
     <use x="1041.113281" xlink:href="#DejaVuSans-Bold-85"/>
     <use x="1122.314453" xlink:href="#DejaVuSans-Bold-98"/>
     <use x="1193.896484" xlink:href="#DejaVuSans-Bold-101"/>
     <use x="1261.71875" xlink:href="#DejaVuSans-Bold-114"/>
     <use x="1311.035156" xlink:href="#DejaVuSans-Bold-108"/>
     <use x="1345.3125" xlink:href="#DejaVuSans-Bold-226"/>
     <use x="1412.792969" xlink:href="#DejaVuSans-Bold-110"/>
     <use x="1483.984375" xlink:href="#DejaVuSans-Bold-100"/>
     <use x="1555.566406" xlink:href="#DejaVuSans-Bold-105"/>
     <use x="1589.84375" xlink:href="#DejaVuSans-Bold-97"/>
     <use x="1657.324219" xlink:href="#DejaVuSans-Bold-45"/>
     <use x="1698.828125" xlink:href="#DejaVuSans-Bold-77"/>
     <use x="1798.339844" xlink:href="#DejaVuSans-Bold-71"/>
    </g>
   </g>
  </g>
 </g>
 <defs>
  <clipPath id="pd8eb27c67f">
   <rect height="432" width="864" x="42.53875" y="28.0025"/>
  </clipPath>
 </defs>
</svg>
